<?xml version="1.0" encoding="utf-8" standalone="no"?>
<svg xmlns="http://www.w3.org/2000/svg" class="main-svg" id="svg" width="944.3321685791016" height="471.0932273864746">
    <g><g class="edge"><path fill="none" stroke="black" stroke-width="2" stroke-dasharray="" d="M 438.0522471790213 81.0000002673105 A 176.1985914602443 30 89.84632326791133 0 0 438.9974334212979 433.39591561432997"/><text font-weight="500" stroke-width="1px" text-anchor="middle" alignment-baseline="central" dominant-baseline="central" x="415.85441730439743" y="257.25876390079026">/</text><path fill="black" stroke="black" stroke-width="2" d="M 426.11002083561726 416.2960904528808 L 419.55888351678334 408.74078769059645 L 426.96564196684574 406.3327620692634 L 426.11002083561726 416.2960904528808 z"/></g><g class="edge"><path fill="none" stroke="black" stroke-width="2" stroke-dasharray="" d="M 438.0522471790213 81.0000002673105 A 132.8904740146935 30 174.50807515781406 0 0 173.49131428626566 106.43668877652021"/><text font-weight="500" stroke-width="1px" text-anchor="middle" alignment-baseline="central" dominant-baseline="central" x="304.55026752304565" y="81.01367684652115">" / "</text><path fill="black" stroke="black" stroke-width="2" d="M 188.06416844777365 90.77704376716045 L 194.6504029290167 83.25231683802309 L 198.05075089516168 90.25919145083733 L 188.06416844777365 90.77704376716045 z"/></g><g class="edge"><path fill="none" stroke="black" stroke-width="2" stroke-dasharray="" d="M 438.0522471790213 81.0000002673105 A 115.21612794869742 30 0.46871286249109695 0 1 668.4767926333909 82.88504936736379"/><text font-weight="500" stroke-width="1px" text-anchor="middle" alignment-baseline="central" dominant-baseline="central" x="553.378361632316" y="68.02674512127194">' / '</text><path fill="black" stroke="black" stroke-width="2" d="M 653.2405640670709 67.88646935531925 L 643.2412092803426 68.00006446583703 L 646.1924583535882 60.79251376964116 L 653.2405640670709 67.88646935531925 z"/></g><g class="edge"><ellipse fill="none" stroke="black" stroke-width="2" stroke-dasharray="" rx="18" ry="25" cx="438.0522471790213" cy="56.0000002673105"/><text font-weight="500" stroke-width="1px" text-anchor="middle" alignment-baseline="central" dominant-baseline="central" x="438.0522471790213" y="21.000000267310497">∀c / c</text><path fill="black" stroke="black" stroke-width="2" d="M 453.9871450655814 67.01888239624085 L 452.27018249229525 57.16738304223719 L 459.8579587871622 58.92360313938389 L 453.9871450655814 67.01888239624085 z"/></g><g class="edge"><path fill="none" stroke="black" stroke-width="2" stroke-dasharray="" d="M 458.9883365928434 433.999065998474 L 674.126912336047 440.49006410347266"/><text font-weight="500" stroke-width="1px" text-anchor="middle" alignment-baseline="central" dominant-baseline="central" x="567.0436393686917" y="421.1360170899063">*</text><path fill="black" stroke="black" stroke-width="2" d="M 672.6275945981811 440.44482782466184 L 663.3037351137034 444.0594708656434 L 663.5386129364596 436.2746464913274 L 672.6275945981811 440.44482782466184 z"/></g><g class="edge"><path fill="none" stroke="black" stroke-width="2" stroke-dasharray="" d="M 419.0045777650635 433.93044597733723 L 171.8545300733573 440.53826663995045"/><text font-weight="500" stroke-width="1px" text-anchor="middle" alignment-baseline="central" dominant-baseline="central" x="295.0003917421504" y="421.18255073710503">/</text><path fill="black" stroke="black" stroke-width="2" d="M 173.3539942475749 440.4981768627249 L 182.45723603548066 436.35921697515334 L 182.66539196335657 444.1448016828203 L 173.3539942475749 440.4981768627249 z"/></g><g class="edge"><path fill="none" stroke="black" stroke-width="2" stroke-dasharray="" d="M 438.9974334212979 433.39591561432997 A 176.1985914602443 30 269.8463232679113 0 0 438.0522471790213 81.0000002673105"/><text font-weight="500" stroke-width="1px" text-anchor="middle" alignment-baseline="central" dominant-baseline="central" x="494.9373974527819" y="257.04664979395994">∀c / /c</text><path fill="black" stroke="black" stroke-width="2" d="M 450.93965976470196 98.09982542875967 L 457.4907970835359 105.65512819104401 L 450.0840386334735 108.06315381237704 L 450.93965976470196 98.09982542875967 z"/></g><g class="edge"><path fill="none" stroke="black" stroke-width="2" stroke-dasharray="" d="M 694.1178155075925 441.0932144876167 A 89.39139280314573 30 304.1811617421103 0 0 794.5600247238133 293.1924131479684"/><text font-weight="500" stroke-width="1px" text-anchor="middle" alignment-baseline="central" dominant-baseline="central" x="757.1649406297877" y="375.8532050003851">*</text><path fill="black" stroke="black" stroke-width="2" d="M 799.9209700087168 313.8672536223194 L 802.2116324774114 323.6013619766842 L 794.5340680020265 322.29229289643064 L 799.9209700087168 313.8672536223194 z"/></g><g class="edge"><path fill="none" stroke="black" stroke-width="2" stroke-dasharray="" d="M 777.3738577551569 282.96325556166335 L 455.23841414767776 91.22915785361558"/><text font-weight="500" stroke-width="1px" text-anchor="middle" alignment-baseline="central" dominant-baseline="central" x="628.5329653791907" y="166.55372016658518">'/' / ' '</text><path fill="black" stroke="black" stroke-width="2" d="M 456.527376670327 91.99634467258845 L 466.43384148118855 93.36087937392867 L 462.4504198907157 100.05348802550253 L 456.527376670327 91.99634467258845 z"/></g><g class="edge"><ellipse fill="none" stroke="black" stroke-width="2" stroke-dasharray="" rx="18" ry="25" cx="794.5600247238133" cy="268.1924131479684"/><text font-weight="500" stroke-width="1px" text-anchor="middle" alignment-baseline="central" dominant-baseline="central" x="794.5600247238133" y="233.1924131479684">*</text><path fill="black" stroke="black" stroke-width="2" d="M 810.4949226103732 279.21129527689874 L 808.777960037087 269.3597959228951 L 816.365736331954 271.1160160200418 L 810.4949226103732 279.21129527689874 z"/></g><g class="edge"><path fill="none" stroke="black" stroke-width="2" stroke-dasharray="" d="M 794.5600247238133 293.1924131479684 A 89.39139280314573 30 124.18116174211035 0 0 694.1178155075925 441.0932144876167"/><text font-weight="500" stroke-width="1px" text-anchor="middle" alignment-baseline="central" dominant-baseline="central" x="704.3866306308761" y="340.0104644136366">∀c</text><path fill="black" stroke="black" stroke-width="2" d="M 688.7568702226889 420.4183740132657 L 686.4662077539944 410.6842656589009 L 694.1437722293792 411.9933347391545 L 688.7568702226889 420.4183740132657 z"/></g><g class="edge"><path fill="none" stroke="black" stroke-width="2" stroke-dasharray="" d="M 164.30599367714547 425.4158842116495 L 425.60792791899877 96.65691305861874"/><text font-weight="500" stroke-width="1px" text-anchor="middle" alignment-baseline="central" dominant-baseline="central" x="248.86273545983943" y="224.40010489076178">\n || \r / \n || \r</text><path fill="black" stroke="black" stroke-width="2" d="M 424.6746039744971 97.83118151796685 L 421.99215995326546 107.46469043595508 L 415.8950709284031 102.61864425855748 L 424.6746039744971 97.83118151796685 z"/></g><g class="edge"><path fill="none" stroke="black" stroke-width="2" stroke-dasharray="" d="M 173.49131428626566 106.43668877652021 A 89.12014815348678 30 143.61452281406784 0 0 30.000000045807894 212.17147948016674"/><text font-weight="500" stroke-width="1px" text-anchor="middle" alignment-baseline="central" dominant-baseline="central" x="96.06289441663246" y="151.5920804443884">\ / \</text><path fill="black" stroke="black" stroke-width="2" d="M 31.80218670373296 190.88932792627796 L 32.87475249934151 180.9470141807713 L 39.68162981272297 184.7318628397192 L 31.80218670373296 190.88932792627796 z"/></g><g class="edge"><path fill="none" stroke="black" stroke-width="2" stroke-dasharray="" d="M 173.49131428626566 106.43668877652021 A 132.8904740146935 30 354.5080751578141 0 0 438.0522471790213 81.0000002673105"/><text font-weight="500" stroke-width="1px" text-anchor="middle" alignment-baseline="central" dominant-baseline="central" x="310.29259526274444" y="140.73825865443246">" / "</text><path fill="black" stroke="black" stroke-width="2" d="M 423.47939301751336 96.65964527667026 L 416.8931585362703 104.18437220580762 L 413.4928105701253 97.17749759299338 L 423.47939301751336 96.65964527667026 z"/></g><g class="edge"><ellipse fill="none" stroke="black" stroke-width="2" stroke-dasharray="" rx="18" ry="25" cx="173.49131428626566" cy="81.43668877652021"/><text font-weight="500" stroke-width="1px" text-anchor="middle" alignment-baseline="central" dominant-baseline="central" x="173.49131428626566" y="46.436688776520214">∀c / c</text><path fill="black" stroke="black" stroke-width="2" d="M 189.42621217282567 92.45557090545057 L 187.7092495995395 82.6040715514469 L 195.29702589440646 84.3602916485936 L 189.42621217282567 92.45557090545057 z"/></g><g class="edge"><path fill="none" stroke="black" stroke-width="2" stroke-dasharray="" d="M 668.4767926333909 82.88504936736379 A 142.9183063876637 30 31.15381538222305 0 1 913.0904922027273 230.75900645878303"/><text font-weight="500" stroke-width="1px" text-anchor="middle" alignment-baseline="central" dominant-baseline="central" x="816.7223150584568" y="113.91417042899306">\ / \</text><path fill="black" stroke="black" stroke-width="2" d="M 906.2906341352029 210.47117491026304 L 897.4567535509144 205.7847526264168 L 903.4978438324018 200.86907501885491 L 906.2906341352029 210.47117491026304 z"/></g><g class="edge"><path fill="none" stroke="black" stroke-width="2" stroke-dasharray="" d="M 668.4767926333909 82.88504936736379 A 115.21612794869742 30 180.4687128624911 0 1 438.0522471790213 81.0000002673105"/><text font-weight="500" stroke-width="1px" text-anchor="middle" alignment-baseline="central" dominant-baseline="central" x="552.8875321450868" y="128.02473747447044">' / '</text><path fill="black" stroke="black" stroke-width="2" d="M 453.28847574534143 95.99858027935502 L 463.28783053206973 95.88498516883725 L 460.33658145882407 103.09253586503311 L 453.28847574534143 95.99858027935502 z"/></g><g class="edge"><ellipse fill="none" stroke="black" stroke-width="2" stroke-dasharray="" rx="18" ry="25" cx="668.4767926333909" cy="57.88504936736379"/><text font-weight="500" stroke-width="1px" text-anchor="middle" alignment-baseline="central" dominant-baseline="central" x="668.4767926333909" y="22.88504936736379">∀c / c</text><path fill="black" stroke="black" stroke-width="2" d="M 684.4116905199509 68.90393149629415 L 682.6947279466647 59.052432142290485 L 690.2825042415317 60.80865223943719 L 684.4116905199509 68.90393149629415 z"/></g><g class="edge"><path fill="none" stroke="black" stroke-width="2" stroke-dasharray="" d="M 30.000000045807894 212.17147948016674 A 89.12014815348678 30 323.6145228140678 0 0 173.49131428626566 106.43668877652021"/><text font-weight="500" stroke-width="1px" text-anchor="middle" alignment-baseline="central" dominant-baseline="central" x="134.47688161884827" y="203.72320466736352">∀c / c</text><path fill="black" stroke="black" stroke-width="2" d="M 171.6891276283406 127.718840330409 L 170.61656183273206 137.66115407591565 L 163.80968451935058 133.87630541696774 L 171.6891276283406 127.718840330409 z"/></g><g class="edge"><path fill="none" stroke="black" stroke-width="2" stroke-dasharray="" d="M 913.0904922027273 230.75900645878303 A 142.9183063876637 30 211.15381538222306 0 1 668.4767926333909 82.88504936736379"/><text font-weight="500" stroke-width="1px" text-anchor="middle" alignment-baseline="central" dominant-baseline="central" x="787.8276381113918" y="161.7118622261551">∀c / c</text><path fill="black" stroke="black" stroke-width="2" d="M 675.2766507009153 103.17288091588377 L 684.1105312852038 107.85930319973 L 678.0694410037164 112.7749808072919 L 675.2766507009153 103.17288091588377 z"/></g></g><g><g class="node" stroke="#000000" id="N"><circle fill="#ffffff" stroke-width="2" r="20" cx="438.0522471790213" cy="81.0000002673105"/><text font-weight="500" stroke-width="1px" text-anchor="middle" alignment-baseline="central" dominant-baseline="central" x="438.0522471790213" y="81.0000002673105">N</text></g><g class="node" stroke="#000000" id="S"><circle fill="#ffffff" stroke-width="2" r="20" cx="438.9974334212979" cy="433.39591561432997"/><text font-weight="500" stroke-width="1px" text-anchor="middle" alignment-baseline="central" dominant-baseline="central" x="438.9974334212979" y="433.39591561432997">S</text></g><g class="node" stroke="#000000" id="STR"><circle fill="#ffffff" stroke-width="2" r="20" cx="173.49131428626566" cy="106.43668877652021"/><text font-weight="500" stroke-width="1px" text-anchor="middle" alignment-baseline="central" dominant-baseline="central" x="173.49131428626566" y="106.43668877652021">STR</text></g><g class="node" stroke="#000000" id="CHR"><circle fill="#ffffff" stroke-width="2" r="20" cx="668.4767926333909" cy="82.88504936736379"/><text font-weight="500" stroke-width="1px" text-anchor="middle" alignment-baseline="central" dominant-baseline="central" x="668.4767926333909" y="82.88504936736379">CHR</text></g><g class="node" stroke="#000000" id="MC"><circle fill="#ffffff" stroke-width="2" r="20" cx="694.1178155075925" cy="441.0932144876167"/><text font-weight="500" stroke-width="1px" text-anchor="middle" alignment-baseline="central" dominant-baseline="central" x="694.1178155075925" y="441.0932144876167">MC</text></g><g class="node" stroke="#000000" id="SC"><circle fill="#ffffff" stroke-width="2" r="20" cx="151.8616744171229" cy="441.0727970029577"/><text font-weight="500" stroke-width="1px" text-anchor="middle" alignment-baseline="central" dominant-baseline="central" x="151.8616744171229" y="441.0727970029577">SC</text></g><g class="node" stroke="#000000" id="SMC"><circle fill="#ffffff" stroke-width="2" r="20" cx="794.5600247238133" cy="293.1924131479684" style=""/><text font-weight="500" stroke-width="1px" text-anchor="middle" alignment-baseline="central" dominant-baseline="central" x="794.5600247238133" y="293.1924131479684">SMC</text></g><g class="node" stroke="#000000" id="STRS"><circle fill="#ffffff" stroke-width="2" r="20" cx="30.000000045807894" cy="212.17147948016674"/><text font-weight="500" stroke-width="1px" text-anchor="middle" alignment-baseline="central" dominant-baseline="central" x="30.000000045807894" y="212.17147948016674">STRS</text></g><g class="node" stroke="#000000" id="CHRS"><circle fill="#ffffff" stroke-width="2" r="20" cx="913.0904922027273" cy="230.75900645878303"/><text font-weight="500" stroke-width="1px" text-anchor="middle" alignment-baseline="central" dominant-baseline="central" x="913.0904922027273" y="230.75900645878303">CHRS</text></g></g><g/></svg>