<?xml version="1.0" encoding="utf-8" standalone="no"?>
<svg xmlns="http://www.w3.org/2000/svg" class="main-svg" id="svg" width="552.9898986816406" height="423.11619567871094">
    <g><g class="edge"><ellipse fill="none" stroke="black" stroke-width="2" stroke-dasharray="" rx="18" ry="25" cx="80.99496459960938" cy="56.500000025296345"/><text font-weight="500" stroke-width="1px" text-anchor="middle" alignment-baseline="central" dominant-baseline="central" x="80.99496459960938" y="21.500000025296345">∀c / c</text><path d="M 96.92986248616938 67.5188821542267 L 95.21289991288322 57.66738280022304 L 102.80067620775019 59.42360289736974 L 96.92986248616938 67.5188821542267 z" fill="black" stroke="black" stroke-width="2"/></g><g class="edge"><path fill="none" stroke="black" stroke-width="2" stroke-dasharray="" d="M 80.99496459960938 81.50000002529634 A 221.06596662795607 30 1.4262893828392897 0 1 522.989913965726 92.50505065917969"/><text font-weight="500" stroke-width="1px" text-anchor="middle" alignment-baseline="central" dominant-baseline="central" x="303.1387596752125" y="40.96295308436835">/</text><path fill="black" stroke="black" stroke-width="2" d="M 505.3859815265483 80.2893403901497 L 495.43141926985345 81.241543245421 L 497.76750269569413 73.81178064099821 L 505.3859815265483 80.2893403901497 z"/></g><g class="edge"><path fill="none" stroke="black" stroke-width="2" stroke-dasharray="" d="M 517.8370659381999 111.82985744230744 L 452.14781262713547 358.18529450993526"/><text font-weight="500" stroke-width="1px" text-anchor="middle" alignment-baseline="central" dominant-baseline="central" x="473.6805866694519" y="231.99133586154667">*</text><path fill="black" stroke="black" stroke-width="2" d="M 452.5342762291999 356.7359340012007 L 451.14460278082913 346.8329643603862 L 458.6700370037497 348.8395778974338 L 452.5342762291999 356.7359340012007 z"/></g><g class="edge"><path fill="none" stroke="black" stroke-width="2" stroke-dasharray="" d="M 522.989913965726 92.50505065917969 A 221.06596662795607 30 181.4262893828393 0 1 80.99496459960938 81.50000002529634"/><text font-weight="500" stroke-width="1px" text-anchor="middle" alignment-baseline="central" dominant-baseline="central" x="301.6719365885103" y="99.87484885882903">∀c / '/'c</text><path fill="black" stroke="black" stroke-width="2" d="M 98.59889703878713 93.71571029432633 L 108.55345929548196 92.76350743905503 L 106.21737586964126 100.19327004347782 L 98.59889703878713 93.71571029432633 z"/></g><g class="edge"><path fill="none" stroke="black" stroke-width="2" stroke-dasharray="" d="M 446.9949645996094 377.51010129306303 A 209.6033290389689 30 185.88814689730944 0 1 30.000015233492718 334.5050506591797"/><text font-weight="500" stroke-width="1px" text-anchor="middle" alignment-baseline="central" dominant-baseline="central" x="233.74226898463255" y="402.11618606964703">*</text><path fill="black" stroke="black" stroke-width="2" d="M 46.406299409042255 348.2824064497932 L 56.40577057624128 348.17956493893587 L 53.446772045364156 355.3839376267439 L 46.406299409042255 348.2824064497932 z"/></g><g class="edge"><path fill="none" stroke="black" stroke-width="2" stroke-dasharray="" d="M 33.9516863426118 314.89932967153544 L 77.04329349049029 101.10572101294058"/><text font-weight="500" stroke-width="1px" text-anchor="middle" alignment-baseline="central" dominant-baseline="central" x="46.25527758364249" y="206.13969237203938">/</text><path fill="black" stroke="black" stroke-width="2" d="M 76.74691815730635 102.5761500870139 L 78.74446678082467 112.37460912385639 L 71.10963941405033 110.83575591119424 L 76.74691815730635 102.5761500870139 z"/></g><g class="edge"><ellipse fill="none" stroke="black" stroke-width="2" stroke-dasharray="" rx="18" ry="25" cx="30.000015233492718" cy="309.5050506591797"/><text font-weight="500" stroke-width="1px" text-anchor="middle" alignment-baseline="central" dominant-baseline="central" x="30.000015233492718" y="274.5050506591797">*</text><path fill="black" stroke="black" stroke-width="2" d="M 45.934913120052734 320.52393278811 L 44.21795054676657 310.6724334341064 L 51.80572684163353 312.4286535312531 L 45.934913120052734 320.52393278811 z"/></g><g class="edge"><path fill="none" stroke="black" stroke-width="2" stroke-dasharray="" d="M 30.000015233492718 334.5050506591797 A 209.6033290389689 30 5.888146897309464 0 1 446.9949645996094 377.51010129306303"/><text font-weight="500" stroke-width="1px" text-anchor="middle" alignment-baseline="central" dominant-baseline="central" x="239.77453722929198" y="343.6247913574474">∀c </text><path fill="black" stroke="black" stroke-width="2" d="M 430.5886804240599 363.7327455024495 L 420.58920925686084 363.83558701330685 L 423.54820778773797 356.63121432549883 L 430.5886804240599 363.7327455024495 z"/></g><g class="edge"><ellipse fill="none" stroke="black" stroke-width="2" stroke-dasharray="" rx="18" ry="25" cx="446.9949645996094" cy="352.51010129306303"/><text font-weight="500" stroke-width="1px" text-anchor="middle" alignment-baseline="central" dominant-baseline="central" x="446.9949645996094" y="317.51010129306303">∀c</text><path fill="black" stroke="black" stroke-width="2" d="M 462.92986248616944 363.52898342199336 L 461.2128999128833 353.6774840679897 L 468.80067620775026 355.4337041651364 L 462.92986248616944 363.52898342199336 z"/></g><g class="edge"><ellipse fill="none" stroke="black" stroke-width="2" stroke-dasharray="" rx="18" ry="25" cx="522.989913965726" cy="67.50505065917969"/><text font-weight="500" stroke-width="1px" text-anchor="middle" alignment-baseline="central" dominant-baseline="central" x="522.989913965726" y="32.50505065917969">'/' / '/'</text><path fill="black" stroke="black" stroke-width="2" d="M 538.924811852286 78.52393278811005 L 537.2078492789998 68.67243343410638 L 544.7956255738668 70.42865353125308 L 538.924811852286 78.52393278811005 z"/></g></g><g><g class="node" stroke="#000000" id="N"><circle fill="#ffffff" stroke-width="2" r="20" cx="80.99496459960938" cy="81.50000002529634" style=""/><text font-weight="500" stroke-width="1px" text-anchor="middle" alignment-baseline="central" dominant-baseline="central" x="80.99496459960938" y="81.50000002529634">N</text></g><g class="node" stroke="#000000" id="S"><circle fill="#ffffff" stroke-width="2" r="20" cx="522.989913965726" cy="92.50505065917969"/><text font-weight="500" stroke-width="1px" text-anchor="middle" alignment-baseline="central" dominant-baseline="central" x="522.989913965726" y="92.50505065917969">S</text></g><g class="node" stroke="#000000" id="MK"><circle fill="#ffffff" stroke-width="2" r="20" cx="446.9949645996094" cy="377.51010129306303" style=""/><text font-weight="500" stroke-width="1px" text-anchor="middle" alignment-baseline="central" dominant-baseline="central" x="446.9949645996094" y="377.51010129306303">MK</text></g><g class="node" stroke="#000000" id="SMK"><circle fill="#ffffff" stroke-width="2" r="20" cx="30.000015233492718" cy="334.5050506591797"/><text font-weight="500" stroke-width="1px" text-anchor="middle" alignment-baseline="central" dominant-baseline="central" x="30.000015233492718" y="334.5050506591797">SMK</text></g></g><g/></svg>