<?xml version="1.0" encoding="UTF-8" standalone="no"?>
<!DOCTYPE svg PUBLIC "-//W3C//DTD SVG 1.1//EN"
 "http://www.w3.org/Graphics/SVG/1.1/DTD/svg11.dtd">
<!-- Generated by graphviz version 12.1.0 (20240811.2233)
 -->
<!-- Title: NumberFA Pages: 1 -->
<svg width="1476pt" height="992pt"
 viewBox="0.00 0.00 1476.07 991.50" xmlns="http://www.w3.org/2000/svg" xmlns:xlink="http://www.w3.org/1999/xlink">
<g id="graph0" class="graph" transform="scale(1 1) rotate(0) translate(4 987.5)">
<title>NumberFA</title>
<polygon fill="white" stroke="none" points="-4,4 -4,-987.5 1472.07,-987.5 1472.07,4 -4,4"/>
<!-- IDLE -->
<g id="node1" class="node">
<title>IDLE</title>
<ellipse fill="none" stroke="black" cx="31.9" cy="-84" rx="31.9" ry="31.9"/>
<text text-anchor="middle" x="31.9" y="-78.95" font-family="Times,serif" font-size="14.00">IDLE</text>
</g>
<!-- START_ZERO -->
<g id="node2" class="node">
<title>START_ZERO</title>
<ellipse fill="none" stroke="black" cx="178.78" cy="-288" rx="67.73" ry="67.73"/>
<text text-anchor="middle" x="178.78" y="-282.95" font-family="Times,serif" font-size="14.00">START_ZERO</text>
</g>
<!-- IDLE&#45;&gt;START_ZERO -->
<g id="edge1" class="edge">
<title>IDLE&#45;&gt;START_ZERO</title>
<path fill="none" stroke="black" d="M51.25,-109.84C71.55,-138.42 105.02,-185.55 132.44,-224.16"/>
<polygon fill="black" stroke="black" points="129.39,-225.9 138.03,-232.03 135.1,-221.85 129.39,-225.9"/>
<text text-anchor="middle" x="87.43" y="-170.93" font-family="Times,serif" font-size="14.00">&#39;0&#39;</text>
</g>
<!-- DECIMAL -->
<g id="node4" class="node">
<title>DECIMAL</title>
<ellipse fill="none" stroke="black" cx="615.63" cy="-172" rx="53.4" ry="53.4"/>
<text text-anchor="middle" x="615.63" y="-166.95" font-family="Times,serif" font-size="14.00">DECIMAL</text>
</g>
<!-- IDLE&#45;&gt;DECIMAL -->
<g id="edge2" class="edge">
<title>IDLE&#45;&gt;DECIMAL</title>
<path fill="none" stroke="black" d="M64.06,-85.49C132.18,-89.1 299.28,-99.96 436.99,-125 476.21,-132.13 519.48,-143.5 553.49,-153.27"/>
<polygon fill="black" stroke="black" points="552.16,-156.53 562.74,-155.96 554.11,-149.81 552.16,-156.53"/>
<text text-anchor="middle" x="279.14" y="-107.43" font-family="Times,serif" font-size="14.00">&#39;1&#39;&#45;&#39;9&#39;</text>
</g>
<!-- INVALID -->
<g id="node13" class="node">
<title>INVALID</title>
<ellipse fill="none" stroke="red" cx="1403.92" cy="-271" rx="48.28" ry="48.28"/>
<ellipse fill="none" stroke="red" cx="1403.92" cy="-271" rx="52.28" ry="52.28"/>
<text text-anchor="middle" x="1403.92" y="-265.95" font-family="Times,serif" font-size="14.00">INVALID</text>
</g>
<!-- IDLE&#45;&gt;INVALID -->
<g id="edge33" class="edge">
<title>IDLE&#45;&gt;INVALID</title>
<path fill="none" stroke="black" d="M54.7,-61.49C81.25,-36.61 128.65,0 177.78,0 177.78,0 177.78,0 1169.11,0 1246.98,0 1269.52,-28.26 1321.78,-86 1353.5,-121.06 1374.32,-170.5 1386.92,-209.46"/>
<polygon fill="black" stroke="black" points="1383.48,-210.2 1389.8,-218.7 1390.16,-208.11 1383.48,-210.2"/>
<text text-anchor="middle" x="694.16" y="-3.95" font-family="Times,serif" font-size="14.00">∀с</text>
</g>
<!-- OCTAL -->
<g id="node3" class="node">
<title>OCTAL</title>
<ellipse fill="none" stroke="black" cx="615.63" cy="-469" rx="41.12" ry="41.12"/>
<text text-anchor="middle" x="615.63" y="-463.95" font-family="Times,serif" font-size="14.00">OCTAL</text>
</g>
<!-- START_ZERO&#45;&gt;OCTAL -->
<g id="edge3" class="edge">
<title>START_ZERO&#45;&gt;OCTAL</title>
<path fill="none" stroke="black" d="M241.63,-313.74C329.37,-350.26 488.1,-416.33 567.19,-449.25"/>
<polygon fill="black" stroke="black" points="565.37,-452.29 575.95,-452.9 568.06,-445.82 565.37,-452.29"/>
<text text-anchor="middle" x="374.38" y="-396.72" font-family="Times,serif" font-size="14.00">&#39;0&#39;&#45;&#39;7&#39;</text>
</g>
<!-- HEX_START -->
<g id="node5" class="node">
<title>HEX_START</title>
<ellipse fill="none" stroke="black" cx="374.38" cy="-197" rx="62.61" ry="62.61"/>
<text text-anchor="middle" x="374.38" y="-191.95" font-family="Times,serif" font-size="14.00">HEX_START</text>
</g>
<!-- START_ZERO&#45;&gt;HEX_START -->
<g id="edge4" class="edge">
<title>START_ZERO&#45;&gt;HEX_START</title>
<path fill="none" stroke="black" d="M240.51,-259.46C261.57,-249.56 285.28,-238.41 306.79,-228.3"/>
<polygon fill="black" stroke="black" points="308.22,-231.49 315.78,-224.07 305.24,-225.16 308.22,-231.49"/>
<text text-anchor="middle" x="279.14" y="-251.15" font-family="Times,serif" font-size="14.00">&#39;x&#39;/&#39;X&#39;</text>
</g>
<!-- NUMBER_END_POTENTIAL_SUFFIX -->
<g id="node7" class="node">
<title>NUMBER_END_POTENTIAL_SUFFIX</title>
<ellipse fill="none" stroke="black" cx="1403.92" cy="-783" rx="64.15" ry="64.15"/>
<text text-anchor="middle" x="1403.92" y="-777.95" font-family="Times,serif" font-size="14.00">END/SUFFIX</text>
</g>
<!-- START_ZERO&#45;&gt;NUMBER_END_POTENTIAL_SUFFIX -->
<g id="edge5" class="edge">
<title>START_ZERO&#45;&gt;NUMBER_END_POTENTIAL_SUFFIX</title>
<path fill="none" stroke="black" d="M184.63,-355.9C198.76,-527.87 247.19,-967 373.38,-967 373.38,-967 373.38,-967 1169.11,-967 1241.23,-967 1265.58,-957.21 1321.78,-912 1341.89,-895.82 1358.45,-873.24 1371.26,-851.48"/>
<polygon fill="black" stroke="black" points="1374.24,-853.31 1376.13,-842.89 1368.15,-849.86 1374.24,-853.31"/>
<text text-anchor="middle" x="773.19" y="-970.2" font-family="Times,serif" font-size="14.00">разделитель</text>
</g>
<!-- SUFFIX_U -->
<g id="node8" class="node">
<title>SUFFIX_U</title>
<ellipse fill="none" stroke="black" cx="773.19" cy="-336" rx="53.91" ry="53.91"/>
<text text-anchor="middle" x="773.19" y="-330.95" font-family="Times,serif" font-size="14.00">SUFFIX_U</text>
</g>
<!-- START_ZERO&#45;&gt;SUFFIX_U -->
<g id="edge6" class="edge">
<title>START_ZERO&#45;&gt;SUFFIX_U</title>
<path fill="none" stroke="black" d="M246.74,-285.65C341.43,-283.45 519.58,-283.43 669.03,-307 682.74,-309.16 697.21,-312.52 710.84,-316.2"/>
<polygon fill="black" stroke="black" points="709.53,-319.47 720.1,-318.8 711.42,-312.73 709.53,-319.47"/>
<text text-anchor="middle" x="499.61" y="-295.6" font-family="Times,serif" font-size="14.00">&#39;u&#39;</text>
</g>
<!-- SUFFIX_L -->
<g id="node9" class="node">
<title>SUFFIX_L</title>
<ellipse fill="none" stroke="black" cx="773.19" cy="-508" rx="52.89" ry="52.89"/>
<text text-anchor="middle" x="773.19" y="-502.95" font-family="Times,serif" font-size="14.00">SUFFIX_L</text>
</g>
<!-- START_ZERO&#45;&gt;SUFFIX_L -->
<g id="edge7" class="edge">
<title>START_ZERO&#45;&gt;SUFFIX_L</title>
<path fill="none" stroke="black" d="M225.86,-336.93C292.44,-403.28 422.92,-517.71 562.24,-554 608.17,-565.97 622.61,-563.88 669.03,-554 684.93,-550.62 701.34,-544.6 716.28,-538.02"/>
<polygon fill="black" stroke="black" points="717.35,-541.38 724.98,-534.02 714.43,-535.01 717.35,-541.38"/>
<text text-anchor="middle" x="499.61" y="-551.93" font-family="Times,serif" font-size="14.00">&#39;l&#39;</text>
</g>
<!-- START_ZERO&#45;&gt;INVALID -->
<g id="edge34" class="edge">
<title>START_ZERO&#45;&gt;INVALID</title>
<path fill="none" stroke="black" d="M212.39,-228.92C235.39,-193.02 269.57,-149.51 311.76,-125 409.31,-68.34 449.8,-93.14 562.24,-84 609.55,-80.15 621.59,-82.41 669.03,-84 814.79,-88.89 853.19,-78.63 996.44,-106 1105.02,-126.75 1128.65,-146.31 1233.28,-182 1272.86,-195.5 1284.67,-194.7 1321.78,-214 1332.19,-219.42 1342.82,-226 1352.8,-232.73"/>
<polygon fill="black" stroke="black" points="1350.69,-235.53 1360.91,-238.34 1354.68,-229.77 1350.69,-235.53"/>
<text text-anchor="middle" x="773.19" y="-90.33" font-family="Times,serif" font-size="14.00">∀с</text>
</g>
<!-- OCTAL&#45;&gt;OCTAL -->
<g id="edge8" class="edge">
<title>OCTAL&#45;&gt;OCTAL</title>
<path fill="none" stroke="black" d="M600.94,-507.66C601.38,-519.16 606.28,-528.12 615.63,-528.12 621.63,-528.12 625.79,-524.44 628.13,-518.78"/>
<polygon fill="black" stroke="black" points="631.52,-519.64 630.03,-509.15 624.66,-518.28 631.52,-519.64"/>
<text text-anchor="middle" x="615.63" y="-531.32" font-family="Times,serif" font-size="14.00">&#39;0&#39;&#45;&#39;7&#39;</text>
</g>
<!-- OCTAL&#45;&gt;NUMBER_END_POTENTIAL_SUFFIX -->
<g id="edge9" class="edge">
<title>OCTAL&#45;&gt;NUMBER_END_POTENTIAL_SUFFIX</title>
<path fill="none" stroke="black" d="M618.84,-510.32C624.54,-603.04 642.55,-824.1 687.03,-882 712.4,-915.01 730.56,-921 772.19,-921 772.19,-921 772.19,-921 1169.11,-921 1239.14,-921 1262.71,-919.62 1321.78,-882 1336.61,-872.55 1350.03,-859.48 1361.5,-845.93"/>
<polygon fill="black" stroke="black" points="1364.21,-848.14 1367.79,-838.16 1358.77,-843.73 1364.21,-848.14"/>
<text text-anchor="middle" x="936.89" y="-924.2" font-family="Times,serif" font-size="14.00">разделитель</text>
</g>
<!-- OCTAL&#45;&gt;SUFFIX_U -->
<g id="edge10" class="edge">
<title>OCTAL&#45;&gt;SUFFIX_U</title>
<path fill="none" stroke="black" d="M647.54,-442.36C655.02,-435.17 662.68,-427.12 669.03,-419 678.97,-406.3 675.77,-399.04 687.03,-387.5 695.17,-379.16 704.93,-371.64 714.9,-365.08"/>
<polygon fill="black" stroke="black" points="716.56,-368.17 723.18,-359.9 712.85,-362.24 716.56,-368.17"/>
<text text-anchor="middle" x="694.16" y="-390.7" font-family="Times,serif" font-size="14.00">&#39;u&#39;</text>
</g>
<!-- OCTAL&#45;&gt;SUFFIX_L -->
<g id="edge11" class="edge">
<title>OCTAL&#45;&gt;SUFFIX_L</title>
<path fill="none" stroke="black" d="M655.89,-478.84C672.44,-482.99 692.1,-487.92 710.51,-492.54"/>
<polygon fill="black" stroke="black" points="709.45,-495.88 720,-494.91 711.15,-489.09 709.45,-495.88"/>
<text text-anchor="middle" x="694.16" y="-492.87" font-family="Times,serif" font-size="14.00">&#39;l&#39;</text>
</g>
<!-- OCTAL&#45;&gt;INVALID -->
<g id="edge35" class="edge">
<title>OCTAL&#45;&gt;INVALID</title>
<path fill="none" stroke="black" d="M651.64,-448.38C662.7,-442.48 675.13,-436.45 687.03,-432 746.94,-409.61 771.08,-429.85 827.1,-399 854.5,-383.92 849.36,-363.69 877.35,-349.75 918.24,-329.39 1210.35,-293.41 1340.56,-278.15"/>
<polygon fill="black" stroke="black" points="1340.86,-281.64 1350.39,-277.01 1340.05,-274.69 1340.86,-281.64"/>
<text text-anchor="middle" x="936.89" y="-353.7" font-family="Times,serif" font-size="14.00">∀с</text>
</g>
<!-- DECIMAL&#45;&gt;DECIMAL -->
<g id="edge12" class="edge">
<title>DECIMAL&#45;&gt;DECIMAL</title>
<path fill="none" stroke="black" d="M601.31,-223.67C602.65,-235.08 607.43,-243.4 615.63,-243.4 620.89,-243.4 624.74,-239.99 627.18,-234.53"/>
<polygon fill="black" stroke="black" points="630.5,-235.69 629.59,-225.13 623.72,-233.95 630.5,-235.69"/>
<text text-anchor="middle" x="615.63" y="-246.6" font-family="Times,serif" font-size="14.00">&#39;0&#39;&#45;&#39;9&#39;</text>
</g>
<!-- DECIMAL&#45;&gt;NUMBER_END_POTENTIAL_SUFFIX -->
<g id="edge13" class="edge">
<title>DECIMAL&#45;&gt;NUMBER_END_POTENTIAL_SUFFIX</title>
<path fill="none" stroke="black" d="M667.67,-185.87C801.93,-223.41 1159.67,-330.52 1233.28,-425 1255.14,-453.07 1231.47,-473.44 1251.28,-503 1272.66,-534.91 1298.63,-522.34 1321.78,-553 1356.39,-598.86 1377.1,-660.71 1388.93,-708.73"/>
<polygon fill="black" stroke="black" points="1385.47,-709.29 1391.19,-718.21 1392.28,-707.67 1385.47,-709.29"/>
<text text-anchor="middle" x="936.89" y="-294.39" font-family="Times,serif" font-size="14.00">разделитель</text>
</g>
<!-- DECIMAL&#45;&gt;SUFFIX_U -->
<g id="edge14" class="edge">
<title>DECIMAL&#45;&gt;SUFFIX_U</title>
<path fill="none" stroke="black" d="M665.32,-192.44C677.95,-199.2 690.91,-207.59 701.28,-217.5 718.87,-234.29 733.65,-256.37 745.08,-276.92"/>
<polygon fill="black" stroke="black" points="741.89,-278.37 749.71,-285.52 748.06,-275.06 741.89,-278.37"/>
<text text-anchor="middle" x="694.16" y="-220.7" font-family="Times,serif" font-size="14.00">&#39;u&#39;</text>
</g>
<!-- DECIMAL&#45;&gt;SUFFIX_L -->
<g id="edge15" class="edge">
<title>DECIMAL&#45;&gt;SUFFIX_L</title>
<path fill="none" stroke="black" d="M646.35,-216.11C664.49,-244.79 686.89,-283.59 701.28,-320.5 714.29,-353.85 707.39,-365.24 719.28,-399 725.48,-416.58 733.72,-435.05 741.85,-451.69"/>
<polygon fill="black" stroke="black" points="738.62,-453.04 746.21,-460.43 744.88,-449.92 738.62,-453.04"/>
<text text-anchor="middle" x="694.16" y="-323.7" font-family="Times,serif" font-size="14.00">&#39;l&#39;</text>
</g>
<!-- DECIMAL&#45;&gt;INVALID -->
<g id="edge36" class="edge">
<title>DECIMAL&#45;&gt;INVALID</title>
<path fill="none" stroke="black" d="M668.29,-161.31C811.66,-132.76 1211.25,-61.2 1321.78,-126 1352.72,-144.14 1372.75,-178.87 1385.16,-209.79"/>
<polygon fill="black" stroke="black" points="1381.88,-211.01 1388.7,-219.12 1388.43,-208.53 1381.88,-211.01"/>
<text text-anchor="middle" x="936.89" y="-128.64" font-family="Times,serif" font-size="14.00">∀с</text>
</g>
<!-- HEX -->
<g id="node6" class="node">
<title>HEX</title>
<ellipse fill="none" stroke="black" cx="615.63" cy="-346" rx="29.86" ry="29.86"/>
<text text-anchor="middle" x="615.63" y="-340.95" font-family="Times,serif" font-size="14.00">HEX</text>
</g>
<!-- HEX_START&#45;&gt;HEX -->
<g id="edge16" class="edge">
<title>HEX_START&#45;&gt;HEX</title>
<path fill="none" stroke="black" d="M436.64,-206.28C470.72,-213.72 512.53,-226.81 544.24,-249.5 550.55,-254.01 573.53,-286.22 591.54,-312.2"/>
<polygon fill="black" stroke="black" points="588.49,-313.94 597.05,-320.18 594.25,-309.96 588.49,-313.94"/>
<text text-anchor="middle" x="499.61" y="-252.7" font-family="Times,serif" font-size="14.00">&#39;0&#39;&#45;&#39;9&#39;,&#39;a&#39;&#45;&#39;f&#39;,&#39;A&#39;&#45;&#39;F&#39;</text>
</g>
<!-- HEX_START&#45;&gt;INVALID -->
<g id="edge37" class="edge">
<title>HEX_START&#45;&gt;INVALID</title>
<path fill="none" stroke="black" d="M428.43,-165.14C464.72,-145.18 514.69,-121.19 562.24,-110 852.61,-41.66 935.09,-87.58 1233.28,-96 1272.66,-97.11 1289.06,-79.05 1321.78,-101 1358.23,-125.46 1378.77,-171.02 1390.06,-208.82"/>
<polygon fill="black" stroke="black" points="1386.65,-209.62 1392.73,-218.3 1393.39,-207.73 1386.65,-209.62"/>
<text text-anchor="middle" x="852.23" y="-77.13" font-family="Times,serif" font-size="14.00">∀с</text>
</g>
<!-- HEX&#45;&gt;HEX -->
<g id="edge17" class="edge">
<title>HEX&#45;&gt;HEX</title>
<path fill="none" stroke="black" d="M601.09,-372.57C599.9,-384.04 604.75,-393.86 615.63,-393.86 622.61,-393.86 627.11,-389.83 629.13,-383.92"/>
<polygon fill="black" stroke="black" points="632.6,-384.36 630.04,-374.08 625.63,-383.71 632.6,-384.36"/>
<text text-anchor="middle" x="615.63" y="-397.06" font-family="Times,serif" font-size="14.00">&#39;0&#39;&#45;&#39;9&#39;,&#39;a&#39;&#45;&#39;f&#39;,&#39;A&#39;&#45;&#39;F&#39;</text>
</g>
<!-- HEX&#45;&gt;NUMBER_END_POTENTIAL_SUFFIX -->
<g id="edge18" class="edge">
<title>HEX&#45;&gt;NUMBER_END_POTENTIAL_SUFFIX</title>
<path fill="none" stroke="black" d="M636.36,-368.12C647.58,-381.86 660.97,-400.39 669.03,-419 709.74,-512.94 669.82,-868 772.19,-868 772.19,-868 772.19,-868 1169.11,-868 1228.94,-868 1292.48,-843.11 1338.2,-820.27"/>
<polygon fill="black" stroke="black" points="1339.59,-823.49 1346.91,-815.82 1336.41,-817.25 1339.59,-823.49"/>
<text text-anchor="middle" x="936.89" y="-871.2" font-family="Times,serif" font-size="14.00">разделитель</text>
</g>
<!-- HEX&#45;&gt;SUFFIX_U -->
<g id="edge19" class="edge">
<title>HEX&#45;&gt;SUFFIX_U</title>
<path fill="none" stroke="black" d="M645.89,-344.12C663.35,-343 686.24,-341.53 707.73,-340.14"/>
<polygon fill="black" stroke="black" points="707.87,-343.64 717.63,-339.51 707.42,-336.66 707.87,-343.64"/>
<text text-anchor="middle" x="694.16" y="-344.5" font-family="Times,serif" font-size="14.00">&#39;u&#39;</text>
</g>
<!-- HEX&#45;&gt;SUFFIX_L -->
<g id="edge20" class="edge">
<title>HEX&#45;&gt;SUFFIX_L</title>
<path fill="none" stroke="black" d="M636.97,-367.18C659.95,-391.11 698.05,-430.79 727.97,-461.94"/>
<polygon fill="black" stroke="black" points="725.27,-464.19 734.72,-468.98 730.32,-459.34 725.27,-464.19"/>
<text text-anchor="middle" x="694.16" y="-435.06" font-family="Times,serif" font-size="14.00">&#39;l&#39;</text>
</g>
<!-- HEX&#45;&gt;INVALID -->
<g id="edge38" class="edge">
<title>HEX&#45;&gt;INVALID</title>
<path fill="none" stroke="black" d="M643.83,-334.82C661.51,-326.65 684.34,-314.35 701.28,-299 711.7,-289.56 708.72,-282.27 719.28,-273 778.67,-220.91 800.58,-210.33 877.35,-191.75 1044.41,-151.33 1246.61,-211.68 1344.36,-247.57"/>
<polygon fill="black" stroke="black" points="1342.9,-250.75 1353.49,-250.96 1345.34,-244.19 1342.9,-250.75"/>
<text text-anchor="middle" x="936.89" y="-195.7" font-family="Times,serif" font-size="14.00">∀с</text>
</g>
<!-- SUFFIX_U&#45;&gt;NUMBER_END_POTENTIAL_SUFFIX -->
<g id="edge23" class="edge">
<title>SUFFIX_U&#45;&gt;NUMBER_END_POTENTIAL_SUFFIX</title>
<path fill="none" stroke="black" d="M800.15,-383.07C809.78,-402.14 820.06,-424.67 827.1,-446 833.07,-464.05 856.44,-595.22 859.35,-614 864.54,-647.39 852.47,-742.13 877.35,-765 909.72,-794.74 1190.83,-789.92 1328.11,-785.71"/>
<polygon fill="black" stroke="black" points="1327.94,-789.22 1337.82,-785.4 1327.72,-782.22 1327.94,-789.22"/>
<text text-anchor="middle" x="1049.69" y="-791.62" font-family="Times,serif" font-size="14.00">разделитель</text>
</g>
<!-- SUFFIX_UL -->
<g id="node11" class="node">
<title>SUFFIX_UL</title>
<ellipse fill="none" stroke="black" cx="936.89" cy="-508" rx="59.54" ry="59.54"/>
<text text-anchor="middle" x="936.89" y="-502.95" font-family="Times,serif" font-size="14.00">SUFFIX_UL</text>
</g>
<!-- SUFFIX_U&#45;&gt;SUFFIX_UL -->
<g id="edge21" class="edge">
<title>SUFFIX_U&#45;&gt;SUFFIX_UL</title>
<path fill="none" stroke="black" d="M810.89,-375.03C833.59,-399.18 862.99,-430.45 887.58,-456.6"/>
<polygon fill="black" stroke="black" points="884.94,-458.91 894.34,-463.8 890.04,-454.11 884.94,-458.91"/>
<text text-anchor="middle" x="852.23" y="-425.2" font-family="Times,serif" font-size="14.00">&#39;l&#39;</text>
</g>
<!-- SUFFIX_ULL -->
<g id="node12" class="node">
<title>SUFFIX_ULL</title>
<ellipse fill="none" stroke="black" cx="1168.11" cy="-531" rx="65.17" ry="65.17"/>
<text text-anchor="middle" x="1168.11" y="-525.95" font-family="Times,serif" font-size="14.00">SUFFIX_ULL</text>
</g>
<!-- SUFFIX_U&#45;&gt;SUFFIX_ULL -->
<g id="edge22" class="edge">
<title>SUFFIX_U&#45;&gt;SUFFIX_ULL</title>
<path fill="none" stroke="black" d="M824.83,-352.54C870.68,-368.24 939.55,-393.7 996.44,-422.5 1033.76,-441.4 1073.32,-466.22 1104.95,-487.35"/>
<polygon fill="black" stroke="black" points="1102.99,-490.25 1113.24,-492.93 1106.9,-484.44 1102.99,-490.25"/>
<text text-anchor="middle" x="936.89" y="-425.7" font-family="Times,serif" font-size="14.00">&#39;ll&#39;</text>
</g>
<!-- SUFFIX_U&#45;&gt;INVALID -->
<g id="edge39" class="edge">
<title>SUFFIX_U&#45;&gt;INVALID</title>
<path fill="none" stroke="black" d="M824.01,-316.56C840.76,-310.58 859.69,-304.41 877.35,-300 1040.46,-259.26 1240.55,-262.1 1340.24,-266.92"/>
<polygon fill="black" stroke="black" points="1339.93,-270.41 1350.09,-267.42 1340.29,-263.42 1339.93,-270.41"/>
<text text-anchor="middle" x="1049.69" y="-279.16" font-family="Times,serif" font-size="14.00">∀с</text>
</g>
<!-- SUFFIX_L&#45;&gt;NUMBER_END_POTENTIAL_SUFFIX -->
<g id="edge27" class="edge">
<title>SUFFIX_L&#45;&gt;NUMBER_END_POTENTIAL_SUFFIX</title>
<path fill="none" stroke="black" d="M775.94,-561.15C781.35,-628.82 801.87,-743.48 877.35,-798 920.59,-829.23 1299.59,-799.09 1321.78,-797 1324.26,-796.77 1326.79,-796.5 1329.33,-796.2"/>
<polygon fill="black" stroke="black" points="1329.61,-799.7 1339.08,-794.94 1328.72,-792.75 1329.61,-799.7"/>
<text text-anchor="middle" x="1049.69" y="-815.26" font-family="Times,serif" font-size="14.00">разделитель</text>
</g>
<!-- SUFFIX_LL -->
<g id="node10" class="node">
<title>SUFFIX_LL</title>
<ellipse fill="none" stroke="black" cx="936.89" cy="-697" rx="58.52" ry="58.52"/>
<text text-anchor="middle" x="936.89" y="-691.95" font-family="Times,serif" font-size="14.00">SUFFIX_LL</text>
</g>
<!-- SUFFIX_L&#45;&gt;SUFFIX_LL -->
<g id="edge24" class="edge">
<title>SUFFIX_L&#45;&gt;SUFFIX_LL</title>
<path fill="none" stroke="black" d="M799.96,-554.18C812.37,-574.67 828.22,-598.5 845.1,-618 856,-630.58 868.89,-642.97 881.5,-654.08"/>
<polygon fill="black" stroke="black" points="879.15,-656.68 889,-660.57 883.73,-651.38 879.15,-656.68"/>
<text text-anchor="middle" x="852.23" y="-635.61" font-family="Times,serif" font-size="14.00">&#39;l&#39;</text>
</g>
<!-- SUFFIX_L&#45;&gt;SUFFIX_UL -->
<g id="edge25" class="edge">
<title>SUFFIX_L&#45;&gt;SUFFIX_UL</title>
<path fill="none" stroke="black" d="M826.25,-508C838.74,-508 852.3,-508 865.47,-508"/>
<polygon fill="black" stroke="black" points="865.4,-511.5 875.4,-508 865.4,-504.5 865.4,-511.5"/>
<text text-anchor="middle" x="852.23" y="-511.2" font-family="Times,serif" font-size="14.00">&#39;u&#39;</text>
</g>
<!-- SUFFIX_L&#45;&gt;SUFFIX_ULL -->
<g id="edge26" class="edge">
<title>SUFFIX_L&#45;&gt;SUFFIX_ULL</title>
<path fill="none" stroke="black" d="M813.48,-542.28C831.63,-555.91 854.26,-569.99 877.35,-577 950.42,-599.18 1037.28,-579.61 1096.72,-559.58"/>
<polygon fill="black" stroke="black" points="1097.76,-562.92 1106.06,-556.34 1095.46,-556.31 1097.76,-562.92"/>
<text text-anchor="middle" x="936.89" y="-590.02" font-family="Times,serif" font-size="14.00">&#39;u&#39; &#39;l&#39;</text>
</g>
<!-- SUFFIX_L&#45;&gt;INVALID -->
<g id="edge40" class="edge">
<title>SUFFIX_L&#45;&gt;INVALID</title>
<path fill="none" stroke="black" d="M815.49,-475.75C833.65,-462.82 855.74,-448.72 877.35,-439 900.63,-428.54 1298.4,-333.23 1321.78,-323 1331.67,-318.67 1341.74,-313.21 1351.26,-307.48"/>
<polygon fill="black" stroke="black" points="1353.04,-310.49 1359.67,-302.23 1349.33,-304.55 1353.04,-310.49"/>
<text text-anchor="middle" x="1049.69" y="-405.21" font-family="Times,serif" font-size="14.00">∀с</text>
</g>
<!-- SUFFIX_LL&#45;&gt;NUMBER_END_POTENTIAL_SUFFIX -->
<g id="edge29" class="edge">
<title>SUFFIX_LL&#45;&gt;NUMBER_END_POTENTIAL_SUFFIX</title>
<path fill="none" stroke="black" d="M994.92,-707.55C1079.08,-723.11 1236.59,-752.24 1329.35,-769.39"/>
<polygon fill="black" stroke="black" points="1328.66,-772.82 1339.13,-771.2 1329.93,-765.94 1328.66,-772.82"/>
<text text-anchor="middle" x="1168.11" y="-754.55" font-family="Times,serif" font-size="14.00">разделитель</text>
</g>
<!-- SUFFIX_LL&#45;&gt;SUFFIX_ULL -->
<g id="edge28" class="edge">
<title>SUFFIX_LL&#45;&gt;SUFFIX_ULL</title>
<path fill="none" stroke="black" d="M988.42,-668.67C997.08,-663.9 1006,-659.03 1014.44,-654.5 1045.53,-637.82 1056.76,-639.24 1084.94,-618 1096.44,-609.33 1107.74,-598.98 1118.1,-588.49"/>
<polygon fill="black" stroke="black" points="1120.36,-591.18 1124.78,-581.55 1115.32,-586.33 1120.36,-591.18"/>
<text text-anchor="middle" x="1049.69" y="-657.7" font-family="Times,serif" font-size="14.00">&#39;u&#39;</text>
</g>
<!-- SUFFIX_LL&#45;&gt;INVALID -->
<g id="edge41" class="edge">
<title>SUFFIX_LL&#45;&gt;INVALID</title>
<path fill="none" stroke="black" d="M995.8,-698.29C1072.03,-698.7 1200.26,-694.48 1233.28,-663 1269.13,-628.81 1225.82,-595.5 1251.28,-553 1271.56,-519.14 1298.54,-530.9 1321.78,-499 1357.92,-449.38 1379.24,-382.12 1390.88,-333.53"/>
<polygon fill="black" stroke="black" points="1394.24,-334.54 1393.09,-324.01 1387.42,-332.96 1394.24,-334.54"/>
<text text-anchor="middle" x="1168.11" y="-698.97" font-family="Times,serif" font-size="14.00">∀с</text>
</g>
<!-- SUFFIX_UL&#45;&gt;NUMBER_END_POTENTIAL_SUFFIX -->
<g id="edge31" class="edge">
<title>SUFFIX_UL&#45;&gt;NUMBER_END_POTENTIAL_SUFFIX</title>
<path fill="none" stroke="black" d="M986.91,-540.73C1018.95,-561.12 1062.27,-586.85 1102.94,-605 1158.45,-629.78 1179.72,-617.73 1233.28,-646.5 1275.46,-669.16 1317.44,-702.82 1349.08,-731.04"/>
<polygon fill="black" stroke="black" points="1346.42,-733.35 1356.19,-737.45 1351.11,-728.15 1346.42,-733.35"/>
<text text-anchor="middle" x="1168.11" y="-649.7" font-family="Times,serif" font-size="14.00">разделитель</text>
</g>
<!-- SUFFIX_UL&#45;&gt;SUFFIX_ULL -->
<g id="edge30" class="edge">
<title>SUFFIX_UL&#45;&gt;SUFFIX_ULL</title>
<path fill="none" stroke="black" d="M996.62,-513.89C1025.57,-516.8 1060.8,-520.33 1091.71,-523.43"/>
<polygon fill="black" stroke="black" points="1091.08,-526.89 1101.38,-524.4 1091.78,-519.92 1091.08,-526.89"/>
<text text-anchor="middle" x="1049.69" y="-525.44" font-family="Times,serif" font-size="14.00">&#39;l&#39;</text>
</g>
<!-- SUFFIX_UL&#45;&gt;INVALID -->
<g id="edge42" class="edge">
<title>SUFFIX_UL&#45;&gt;INVALID</title>
<path fill="none" stroke="black" d="M991.13,-482.67C1022.98,-468.36 1064.59,-451.12 1102.94,-439.75 1197.79,-411.64 1239.84,-454.45 1321.78,-399 1346.67,-382.15 1365.51,-354.84 1378.74,-329.77"/>
<polygon fill="black" stroke="black" points="1381.82,-331.42 1383.21,-320.92 1375.58,-328.27 1381.82,-331.42"/>
<text text-anchor="middle" x="1168.11" y="-443.7" font-family="Times,serif" font-size="14.00">∀с</text>
</g>
<!-- SUFFIX_ULL&#45;&gt;NUMBER_END_POTENTIAL_SUFFIX -->
<g id="edge32" class="edge">
<title>SUFFIX_ULL&#45;&gt;NUMBER_END_POTENTIAL_SUFFIX</title>
<path fill="none" stroke="black" d="M1231.36,-548.31C1261.78,-559.39 1297.05,-576.47 1321.78,-601.5 1351.25,-631.34 1371.03,-673.74 1383.67,-710.05"/>
<polygon fill="black" stroke="black" points="1380.23,-710.81 1386.73,-719.18 1386.87,-708.58 1380.23,-710.81"/>
<text text-anchor="middle" x="1286.53" y="-604.7" font-family="Times,serif" font-size="14.00">разделитель</text>
</g>
<!-- SUFFIX_ULL&#45;&gt;INVALID -->
<g id="edge43" class="edge">
<title>SUFFIX_ULL&#45;&gt;INVALID</title>
<path fill="none" stroke="black" d="M1224.09,-497.43C1233.12,-492.09 1242.42,-486.7 1251.28,-481.75 1282.11,-464.49 1297.35,-470.53 1321.78,-445 1352.08,-413.33 1372.67,-368.27 1385.52,-331.95"/>
<polygon fill="black" stroke="black" points="1388.69,-333.49 1388.61,-322.9 1382.06,-331.23 1388.69,-333.49"/>
<text text-anchor="middle" x="1286.53" y="-485.7" font-family="Times,serif" font-size="14.00">∀с</text>
</g>
</g>
</svg>
