<?xml version="1.0" encoding="UTF-8" standalone="no"?>
<!DOCTYPE svg PUBLIC "-//W3C//DTD SVG 1.1//EN"
 "http://www.w3.org/Graphics/SVG/1.1/DTD/svg11.dtd">
<!-- Generated by graphviz version 12.1.0 (20240811.2233)
 -->
<!-- Title: NumberFA Pages: 1 -->
<svg width="1025pt" height="1452pt"
 viewBox="0.00 0.00 1025.25 1452.38" xmlns="http://www.w3.org/2000/svg" xmlns:xlink="http://www.w3.org/1999/xlink">
<g id="graph0" class="graph" transform="scale(1 1) rotate(0) translate(4 1448.38)">
<title>NumberFA</title>
<polygon fill="white" stroke="none" points="-4,4 -4,-1448.38 1021.25,-1448.38 1021.25,4 -4,4"/>
<!-- IDLE -->
<g id="node1" class="node">
<title>IDLE</title>
<ellipse fill="none" stroke="black" cx="93" cy="-1412.48" rx="31.9" ry="31.9"/>
<text text-anchor="middle" x="93" y="-1407.43" font-family="Times,serif" font-size="14.00">IDLE</text>
</g>
<!-- IDLE&#45;&gt;IDLE -->
<g id="edge3" class="edge">
<title>IDLE&#45;&gt;IDLE</title>
<path fill="none" stroke="black" d="M123.21,-1423.37C134.06,-1423.6 142.9,-1419.97 142.9,-1412.48 142.9,-1407.91 139.62,-1404.78 134.6,-1403.08"/>
<polygon fill="black" stroke="black" points="135.08,-1399.61 124.71,-1401.78 134.17,-1406.55 135.08,-1399.61"/>
<text text-anchor="middle" x="150.03" y="-1407.8" font-family="Times,serif" font-size="14.00">∀c</text>
</g>
<!-- START_ZERO -->
<g id="node2" class="node">
<title>START_ZERO</title>
<ellipse fill="none" stroke="black" cx="513" cy="-1260.35" rx="67.73" ry="67.73"/>
<text text-anchor="middle" x="513" y="-1255.3" font-family="Times,serif" font-size="14.00">START_ZERO</text>
</g>
<!-- IDLE&#45;&gt;START_ZERO -->
<g id="edge1" class="edge">
<title>IDLE&#45;&gt;START_ZERO</title>
<path fill="none" stroke="black" d="M122.87,-1400.8C188.04,-1377.51 344.64,-1321.53 438.42,-1288.01"/>
<polygon fill="black" stroke="black" points="439.59,-1291.3 447.83,-1284.64 437.23,-1284.71 439.59,-1291.3"/>
<text text-anchor="middle" x="271.01" y="-1349.27" font-family="Times,serif" font-size="14.00">&#39;0&#39;</text>
</g>
<!-- DECIMAL -->
<g id="node4" class="node">
<title>DECIMAL</title>
<ellipse fill="none" stroke="black" cx="93" cy="-909" rx="53.4" ry="53.4"/>
<text text-anchor="middle" x="93" y="-903.95" font-family="Times,serif" font-size="14.00">DECIMAL</text>
</g>
<!-- IDLE&#45;&gt;DECIMAL -->
<g id="edge2" class="edge">
<title>IDLE&#45;&gt;DECIMAL</title>
<path fill="none" stroke="black" d="M93,-1380.11C93,-1299.32 93,-1082.85 93,-974.15"/>
<polygon fill="black" stroke="black" points="96.5,-974.22 93,-964.22 89.5,-974.22 96.5,-974.22"/>
<text text-anchor="middle" x="106.5" y="-1161.32" font-family="Times,serif" font-size="14.00">&#39;1&#39;&#45;&#39;9&#39;</text>
</g>
<!-- INVALID -->
<g id="node13" class="node">
<title>INVALID</title>
<ellipse fill="none" stroke="red" cx="385" cy="-52.28" rx="48.28" ry="48.28"/>
<ellipse fill="none" stroke="red" cx="385" cy="-52.28" rx="52.28" ry="52.28"/>
<text text-anchor="middle" x="385" y="-47.23" font-family="Times,serif" font-size="14.00">INVALID</text>
</g>
<!-- IDLE&#45;&gt;INVALID -->
<g id="edge48" class="edge">
<title>IDLE&#45;&gt;INVALID</title>
<path fill="none" stroke="black" d="M69.53,-1390.63C41.98,-1363.73 0,-1314.08 0,-1261.35 0,-1261.35 0,-1261.35 0,-221.98 0,-83.49 211.59,-57.62 321.05,-53.5"/>
<polygon fill="black" stroke="black" points="320.88,-57.01 330.76,-53.19 320.66,-50.02 320.88,-57.01"/>
<text text-anchor="middle" x="7.12" y="-734.27" font-family="Times,serif" font-size="14.00">∀c</text>
</g>
<!-- OCTAL -->
<g id="node3" class="node">
<title>OCTAL</title>
<ellipse fill="none" stroke="black" cx="675" cy="-909" rx="41.12" ry="41.12"/>
<text text-anchor="middle" x="675" y="-903.95" font-family="Times,serif" font-size="14.00">OCTAL</text>
</g>
<!-- START_ZERO&#45;&gt;OCTAL -->
<g id="edge5" class="edge">
<title>START_ZERO&#45;&gt;OCTAL</title>
<path fill="none" stroke="black" d="M549.63,-1203.14C561.65,-1183.6 574.57,-1161.26 585,-1140.12 614.85,-1079.56 642.02,-1006.49 658.51,-959.17"/>
<polygon fill="black" stroke="black" points="661.81,-960.34 661.78,-949.74 655.2,-958.05 661.81,-960.34"/>
<text text-anchor="middle" x="651.16" y="-1072.45" font-family="Times,serif" font-size="14.00">&#39;0&#39;&#45;&#39;7&#39;</text>
</g>
<!-- HEX_START -->
<g id="node5" class="node">
<title>HEX_START</title>
<ellipse fill="none" stroke="black" cx="513" cy="-1077.5" rx="62.61" ry="62.61"/>
<text text-anchor="middle" x="513" y="-1072.45" font-family="Times,serif" font-size="14.00">HEX_START</text>
</g>
<!-- START_ZERO&#45;&gt;HEX_START -->
<g id="edge4" class="edge">
<title>START_ZERO&#45;&gt;HEX_START</title>
<path fill="none" stroke="black" d="M513,-1192.26C513,-1178.99 513,-1165 513,-1151.54"/>
<polygon fill="black" stroke="black" points="516.5,-1151.91 513,-1141.91 509.5,-1151.91 516.5,-1151.91"/>
<text text-anchor="middle" x="527.62" y="-1161.32" font-family="Times,serif" font-size="14.00">&#39;x&#39;/&#39;X&#39;</text>
</g>
<!-- NUMBER_END_POTENTIAL_SUFFIX -->
<g id="node7" class="node">
<title>NUMBER_END_POTENTIAL_SUFFIX</title>
<ellipse fill="none" stroke="black" cx="348" cy="-738.95" rx="64.15" ry="64.15"/>
<text text-anchor="middle" x="348" y="-733.9" font-family="Times,serif" font-size="14.00">END/SUFFIX</text>
</g>
<!-- START_ZERO&#45;&gt;NUMBER_END_POTENTIAL_SUFFIX -->
<g id="edge8" class="edge">
<title>START_ZERO&#45;&gt;NUMBER_END_POTENTIAL_SUFFIX</title>
<path fill="none" stroke="black" d="M474.77,-1204.25C462.56,-1184.69 449.92,-1162.07 441,-1140.12 396.65,-1030.93 370.81,-895.99 358.06,-814.02"/>
<polygon fill="black" stroke="black" points="361.55,-813.67 356.57,-804.31 354.63,-814.73 361.55,-813.67"/>
<text text-anchor="middle" x="430.02" y="-983.59" font-family="Times,serif" font-size="14.00">разделитель</text>
</g>
<!-- SUFFIX_U -->
<g id="node8" class="node">
<title>SUFFIX_U</title>
<ellipse fill="none" stroke="black" cx="651" cy="-567.64" rx="53.91" ry="53.91"/>
<text text-anchor="middle" x="651" y="-562.59" font-family="Times,serif" font-size="14.00">SUFFIX_U</text>
</g>
<!-- START_ZERO&#45;&gt;SUFFIX_U -->
<g id="edge6" class="edge">
<title>START_ZERO&#45;&gt;SUFFIX_U</title>
<path fill="none" stroke="black" d="M572.95,-1227.84C644.61,-1186.19 760.23,-1105.21 803,-996.89 856.6,-861.14 802.39,-806.27 739,-674.8 728.46,-652.94 712.46,-631.74 696.98,-614.1"/>
<polygon fill="black" stroke="black" points="699.76,-611.96 690.46,-606.87 694.56,-616.64 699.76,-611.96"/>
<text text-anchor="middle" x="839.47" y="-903.95" font-family="Times,serif" font-size="14.00">&#39;u&#39;/&#39;U&#39;</text>
</g>
<!-- SUFFIX_L -->
<g id="node9" class="node">
<title>SUFFIX_L</title>
<ellipse fill="none" stroke="black" cx="241" cy="-567.64" rx="52.89" ry="52.89"/>
<text text-anchor="middle" x="241" y="-562.59" font-family="Times,serif" font-size="14.00">SUFFIX_L</text>
</g>
<!-- START_ZERO&#45;&gt;SUFFIX_L -->
<g id="edge7" class="edge">
<title>START_ZERO&#45;&gt;SUFFIX_L</title>
<path fill="none" stroke="black" d="M462.65,-1214.35C440.62,-1193.14 415.42,-1166.7 396,-1140.12 296.07,-1003.33 258.75,-967.52 218,-803.1 200.51,-732.54 207.54,-711.17 220,-639.55 220.59,-636.18 221.28,-632.75 222.05,-629.29"/>
<polygon fill="black" stroke="black" points="225.41,-630.29 224.37,-619.74 218.61,-628.63 225.41,-630.29"/>
<text text-anchor="middle" x="286.2" y="-903.95" font-family="Times,serif" font-size="14.00">&#39;l&#39;/&#39;L&#39;</text>
</g>
<!-- START_ZERO&#45;&gt;INVALID -->
<g id="edge9" class="edge">
<title>START_ZERO&#45;&gt;INVALID</title>
<path fill="none" stroke="black" d="M580.1,-1249.02C714.3,-1226.47 1003,-1167.6 1003,-1078.5 1003,-1078.5 1003,-1078.5 1003,-221.98 1003,-107.99 606.73,-68.38 448.82,-57.13"/>
<polygon fill="black" stroke="black" points="449.15,-53.64 438.93,-56.44 448.67,-60.62 449.15,-53.64"/>
<text text-anchor="middle" x="1010.12" y="-643.5" font-family="Times,serif" font-size="14.00">∀c</text>
</g>
<!-- OCTAL&#45;&gt;OCTAL -->
<g id="edge15" class="edge">
<title>OCTAL&#45;&gt;OCTAL</title>
<path fill="none" stroke="black" d="M713.66,-923.9C725.16,-923.45 734.12,-918.48 734.12,-909 734.12,-902.92 730.44,-898.69 724.78,-896.33"/>
<polygon fill="black" stroke="black" points="725.64,-892.93 715.15,-894.39 724.26,-899.79 725.64,-892.93"/>
<text text-anchor="middle" x="747.62" y="-903.95" font-family="Times,serif" font-size="14.00">&#39;0&#39;&#45;&#39;7&#39;</text>
</g>
<!-- OCTAL&#45;&gt;NUMBER_END_POTENTIAL_SUFFIX -->
<g id="edge18" class="edge">
<title>OCTAL&#45;&gt;NUMBER_END_POTENTIAL_SUFFIX</title>
<path fill="none" stroke="black" d="M641.4,-884.46C627.34,-875.02 610.66,-864.33 595,-855.6 536.71,-823.08 467.72,-791.3 417.48,-769.32"/>
<polygon fill="black" stroke="black" points="419.01,-766.16 408.45,-765.38 416.22,-772.58 419.01,-766.16"/>
<text text-anchor="middle" x="590.92" y="-824.3" font-family="Times,serif" font-size="14.00">разделитель</text>
</g>
<!-- OCTAL&#45;&gt;SUFFIX_U -->
<g id="edge16" class="edge">
<title>OCTAL&#45;&gt;SUFFIX_U</title>
<path fill="none" stroke="black" d="M688.61,-869.72C691.66,-859.42 694.45,-848.2 696,-837.6 706.45,-766 710.41,-745.71 696,-674.8 692.7,-658.55 686.82,-641.69 680.37,-626.32"/>
<polygon fill="black" stroke="black" points="683.66,-625.1 676.45,-617.34 677.24,-627.9 683.66,-625.1"/>
<text text-anchor="middle" x="720" y="-733.9" font-family="Times,serif" font-size="14.00">&#39;u&#39;/&#39;U&#39;</text>
</g>
<!-- OCTAL&#45;&gt;SUFFIX_L -->
<g id="edge17" class="edge">
<title>OCTAL&#45;&gt;SUFFIX_L</title>
<path fill="none" stroke="black" d="M658.02,-871.1C650.21,-855.28 640.37,-836.85 630,-821.1 624.31,-812.46 620.32,-812.11 615.25,-803.1 585.59,-750.41 615.91,-714.15 570,-674.8 537.04,-646.56 516.29,-666.62 474,-656.8 416.94,-643.56 401.68,-642.56 347,-621.55 330.46,-615.2 313.05,-607.13 297.23,-599.22"/>
<polygon fill="black" stroke="black" points="298.94,-596.16 288.44,-594.75 295.77,-602.4 298.94,-596.16"/>
<text text-anchor="middle" x="627.62" y="-733.9" font-family="Times,serif" font-size="14.00">&#39;l&#39;/&#39;L&#39;</text>
</g>
<!-- OCTAL&#45;&gt;INVALID -->
<g id="edge19" class="edge">
<title>OCTAL&#45;&gt;INVALID</title>
<path fill="none" stroke="black" d="M706.23,-881.75C738.75,-851.31 785,-797.83 785,-739.95 785,-739.95 785,-739.95 785,-221.98 785,-77.89 561.91,-54.93 448.94,-52.54"/>
<polygon fill="black" stroke="black" points="449.27,-49.04 439.22,-52.38 449.16,-56.04 449.27,-49.04"/>
<text text-anchor="middle" x="792.12" y="-482.43" font-family="Times,serif" font-size="14.00">∀c</text>
</g>
<!-- DECIMAL&#45;&gt;DECIMAL -->
<g id="edge10" class="edge">
<title>DECIMAL&#45;&gt;DECIMAL</title>
<path fill="none" stroke="black" d="M144.67,-923.53C156.08,-922.16 164.4,-917.32 164.4,-909 164.4,-903.66 160.99,-899.76 155.53,-897.28"/>
<polygon fill="black" stroke="black" points="156.69,-893.97 146.13,-894.84 154.93,-900.74 156.69,-893.97"/>
<text text-anchor="middle" x="177.9" y="-903.95" font-family="Times,serif" font-size="14.00">&#39;0&#39;&#45;&#39;9&#39;</text>
</g>
<!-- DECIMAL&#45;&gt;NUMBER_END_POTENTIAL_SUFFIX -->
<g id="edge13" class="edge">
<title>DECIMAL&#45;&gt;NUMBER_END_POTENTIAL_SUFFIX</title>
<path fill="none" stroke="black" d="M139.99,-882.61C176.34,-862.4 227.48,-832.67 270,-803.1 276.69,-798.45 283.53,-793.39 290.26,-788.23"/>
<polygon fill="black" stroke="black" points="292.4,-790.99 298.13,-782.08 288.09,-785.47 292.4,-790.99"/>
<text text-anchor="middle" x="277.29" y="-824.3" font-family="Times,serif" font-size="14.00">разделитель</text>
</g>
<!-- DECIMAL&#45;&gt;SUFFIX_U -->
<g id="edge11" class="edge">
<title>DECIMAL&#45;&gt;SUFFIX_U</title>
<path fill="none" stroke="black" d="M140.33,-883.49C161.22,-873.55 186.35,-862.75 210,-855.6 242.39,-845.79 485.73,-826.68 510,-803.1 551.77,-762.51 495.52,-715.95 536.75,-674.8 564.78,-646.84 594.72,-683.46 624,-656.8 631.4,-650.07 636.79,-641.37 640.72,-632.07"/>
<polygon fill="black" stroke="black" points="643.96,-633.4 644.05,-622.8 637.37,-631.03 643.96,-633.4"/>
<text text-anchor="middle" x="551.38" y="-733.9" font-family="Times,serif" font-size="14.00">&#39;u&#39;/&#39;U&#39;</text>
</g>
<!-- DECIMAL&#45;&gt;SUFFIX_L -->
<g id="edge12" class="edge">
<title>DECIMAL&#45;&gt;SUFFIX_L</title>
<path fill="none" stroke="black" d="M100.96,-855.81C109.8,-807.07 126.85,-733.27 156.25,-674.8 166.99,-653.44 182.52,-632.34 197.36,-614.65"/>
<polygon fill="black" stroke="black" points="199.72,-617.27 203.58,-607.4 194.41,-612.71 199.72,-617.27"/>
<text text-anchor="middle" x="168.62" y="-733.9" font-family="Times,serif" font-size="14.00">&#39;l&#39;/&#39;L&#39;</text>
</g>
<!-- DECIMAL&#45;&gt;INVALID -->
<g id="edge14" class="edge">
<title>DECIMAL&#45;&gt;INVALID</title>
<path fill="none" stroke="black" d="M70.33,-860.26C56.71,-827.24 42,-781.87 42,-739.95 42,-739.95 42,-739.95 42,-221.98 42,-98.94 221.92,-65.63 321.14,-56.62"/>
<polygon fill="black" stroke="black" points="321.35,-60.12 331.02,-55.79 320.77,-53.14 321.35,-60.12"/>
<text text-anchor="middle" x="49.12" y="-482.43" font-family="Times,serif" font-size="14.00">∀c</text>
</g>
<!-- HEX -->
<g id="node6" class="node">
<title>HEX</title>
<ellipse fill="none" stroke="black" cx="477" cy="-909" rx="29.86" ry="29.86"/>
<text text-anchor="middle" x="477" y="-903.95" font-family="Times,serif" font-size="14.00">HEX</text>
</g>
<!-- HEX_START&#45;&gt;HEX -->
<g id="edge20" class="edge">
<title>HEX_START&#45;&gt;HEX</title>
<path fill="none" stroke="black" d="M499.9,-1015.92C495.13,-993.84 489.86,-969.47 485.58,-949.67"/>
<polygon fill="black" stroke="black" points="489.04,-949.11 483.5,-940.07 482.2,-950.59 489.04,-949.11"/>
<text text-anchor="middle" x="525.38" y="-983.59" font-family="Times,serif" font-size="14.00">hex&#45;цифра</text>
</g>
<!-- HEX_START&#45;&gt;INVALID -->
<g id="edge21" class="edge">
<title>HEX_START&#45;&gt;INVALID</title>
<path fill="none" stroke="black" d="M556.44,-1031.88C564.17,-1025.54 572.49,-1019.58 581,-1014.89 657.36,-972.83 707.99,-1023.67 770,-962.39 782.89,-949.66 861,-667.3 861,-649.18 861,-649.18 861,-649.18 861,-221.98 861,-158.04 814.82,-149.87 757,-122.56 656.14,-74.93 525.44,-60.01 448.84,-55.36"/>
<polygon fill="black" stroke="black" points="449.18,-51.87 438.99,-54.8 448.78,-58.86 449.18,-51.87"/>
<text text-anchor="middle" x="918" y="-562.97" font-family="Times,serif" font-size="14.00">разделитель или ∀c</text>
</g>
<!-- HEX&#45;&gt;HEX -->
<g id="edge22" class="edge">
<title>HEX&#45;&gt;HEX</title>
<path fill="none" stroke="black" d="M503.09,-923.7C514.76,-925.1 524.86,-920.2 524.86,-909 524.86,-901.64 520.51,-897.01 514.22,-895.08"/>
<polygon fill="black" stroke="black" points="514.82,-891.62 504.6,-894.4 514.33,-898.6 514.82,-891.62"/>
<text text-anchor="middle" x="555.23" y="-903.95" font-family="Times,serif" font-size="14.00">hex&#45;цифра</text>
</g>
<!-- HEX&#45;&gt;NUMBER_END_POTENTIAL_SUFFIX -->
<g id="edge25" class="edge">
<title>HEX&#45;&gt;NUMBER_END_POTENTIAL_SUFFIX</title>
<path fill="none" stroke="black" d="M459.51,-884.27C446.51,-866.73 428.3,-842.31 412,-821.1 406.34,-813.73 400.36,-806.03 394.41,-798.43"/>
<polygon fill="black" stroke="black" points="397.32,-796.47 388.4,-790.76 391.82,-800.79 397.32,-796.47"/>
<text text-anchor="middle" x="458.02" y="-824.3" font-family="Times,serif" font-size="14.00">разделитель</text>
</g>
<!-- HEX&#45;&gt;SUFFIX_U -->
<g id="edge23" class="edge">
<title>HEX&#45;&gt;SUFFIX_U</title>
<path fill="none" stroke="black" d="M506.76,-903.3C542.38,-895.99 600.86,-878.23 630,-837.6 652.69,-805.96 654.76,-701.99 653.43,-632.98"/>
<polygon fill="black" stroke="black" points="656.94,-633.23 653.22,-623.31 649.94,-633.38 656.94,-633.23"/>
<text text-anchor="middle" x="668.32" y="-733.9" font-family="Times,serif" font-size="14.00">&#39;u&#39;/&#39;U&#39;</text>
</g>
<!-- HEX&#45;&gt;SUFFIX_L -->
<g id="edge24" class="edge">
<title>HEX&#45;&gt;SUFFIX_L</title>
<path fill="none" stroke="black" d="M447.08,-904.08C396.58,-895.7 295.51,-870.92 250.25,-803.1 216.51,-752.54 218.96,-681.26 226.87,-630.6"/>
<polygon fill="black" stroke="black" points="230.29,-631.41 228.5,-620.97 223.38,-630.25 230.29,-631.41"/>
<text text-anchor="middle" x="262.62" y="-733.9" font-family="Times,serif" font-size="14.00">&#39;l&#39;/&#39;L&#39;</text>
</g>
<!-- HEX&#45;&gt;INVALID -->
<g id="edge26" class="edge">
<title>HEX&#45;&gt;INVALID</title>
<path fill="none" stroke="black" d="M448.59,-898.55C414.33,-887.37 354.86,-868.62 303,-855.6 263.86,-845.77 242.93,-865.73 214,-837.6 143.35,-768.88 176.06,-719.37 164,-621.55 149.37,-502.84 167.55,-164.83 172,-157.81 205.02,-105.74 272.25,-78.83 322.39,-65.45"/>
<polygon fill="black" stroke="black" points="323.15,-68.87 331.98,-63.02 321.43,-62.08 323.15,-68.87"/>
<text text-anchor="middle" x="165.54" y="-482.43" font-family="Times,serif" font-size="14.00">∀c</text>
</g>
<!-- NUMBER_END_POTENTIAL_SUFFIX&#45;&gt;NUMBER_END_POTENTIAL_SUFFIX -->
<g id="edge30" class="edge">
<title>NUMBER_END_POTENTIAL_SUFFIX&#45;&gt;NUMBER_END_POTENTIAL_SUFFIX</title>
<path fill="none" stroke="black" d="M410.33,-755.03C421.96,-753.05 430.15,-747.69 430.15,-738.95 430.15,-733.35 426.79,-729.14 421.31,-726.31"/>
<polygon fill="black" stroke="black" points="422.36,-722.98 411.77,-723.32 420.27,-729.65 422.36,-722.98"/>
<text text-anchor="middle" x="465.4" y="-733.9" font-family="Times,serif" font-size="14.00">разделитель</text>
</g>
<!-- NUMBER_END_POTENTIAL_SUFFIX&#45;&gt;SUFFIX_U -->
<g id="edge27" class="edge">
<title>NUMBER_END_POTENTIAL_SUFFIX&#45;&gt;SUFFIX_U</title>
<path fill="none" stroke="black" d="M402.79,-705.27C426.26,-690.88 453.79,-673.49 478,-656.8 488.45,-649.6 489.3,-645.03 500.75,-639.55 530.6,-625.26 542.78,-635.05 573,-621.55 581.7,-617.67 590.47,-612.81 598.84,-607.63"/>
<polygon fill="black" stroke="black" points="600.67,-610.62 607.18,-602.26 596.88,-604.73 600.67,-610.62"/>
<text text-anchor="middle" x="515.38" y="-643.13" font-family="Times,serif" font-size="14.00">&#39;u&#39;/&#39;U&#39;</text>
</g>
<!-- NUMBER_END_POTENTIAL_SUFFIX&#45;&gt;SUFFIX_L -->
<g id="edge28" class="edge">
<title>NUMBER_END_POTENTIAL_SUFFIX&#45;&gt;SUFFIX_L</title>
<path fill="none" stroke="black" d="M297.82,-698.63C279.53,-683.29 261.92,-666.97 256.25,-656.8 251.94,-649.08 248.79,-640.43 246.5,-631.64"/>
<polygon fill="black" stroke="black" points="249.94,-630.99 244.37,-621.99 243.11,-632.51 249.94,-630.99"/>
<text text-anchor="middle" x="268.62" y="-643.13" font-family="Times,serif" font-size="14.00">&#39;l&#39;/&#39;L&#39;</text>
</g>
<!-- NUMBER_END_POTENTIAL_SUFFIX&#45;&gt;INVALID -->
<g id="edge29" class="edge">
<title>NUMBER_END_POTENTIAL_SUFFIX&#45;&gt;INVALID</title>
<path fill="none" stroke="black" d="M302.6,-693.46C294.98,-686.87 286.96,-680.42 279,-674.8 237.84,-645.79 204.89,-664.74 179,-621.55 154.36,-580.45 177.09,-561.61 179,-513.73 185.36,-354.06 141.25,-290.7 230,-157.81 253.52,-122.59 293.34,-96.11 326.73,-78.62"/>
<polygon fill="black" stroke="black" points="328.18,-81.81 335.51,-74.16 325.01,-75.57 328.18,-81.81"/>
<text text-anchor="middle" x="186.52" y="-396.27" font-family="Times,serif" font-size="14.00">∀c</text>
</g>
<!-- SUFFIX_U&#45;&gt;NUMBER_END_POTENTIAL_SUFFIX -->
<g id="edge33" class="edge">
<title>SUFFIX_U&#45;&gt;NUMBER_END_POTENTIAL_SUFFIX</title>
<path fill="none" stroke="black" d="M607.77,-600.02C590.84,-612.33 571.24,-626.59 553.5,-639.55 543.04,-647.2 541.2,-650.29 530,-656.8 494.49,-677.44 452.77,-696.38 418.24,-710.77"/>
<polygon fill="black" stroke="black" points="417.08,-707.46 409.17,-714.51 419.75,-713.93 417.08,-707.46"/>
<text text-anchor="middle" x="588.75" y="-643.13" font-family="Times,serif" font-size="14.00">разделитель</text>
</g>
<!-- SUFFIX_UL -->
<g id="node11" class="node">
<title>SUFFIX_UL</title>
<ellipse fill="none" stroke="black" cx="551" cy="-400.94" rx="59.54" ry="59.54"/>
<text text-anchor="middle" x="551" y="-395.89" font-family="Times,serif" font-size="14.00">SUFFIX_UL</text>
</g>
<!-- SUFFIX_U&#45;&gt;SUFFIX_UL -->
<g id="edge31" class="edge">
<title>SUFFIX_U&#45;&gt;SUFFIX_UL</title>
<path fill="none" stroke="black" d="M623.41,-521.2C612.33,-502.96 599.4,-481.66 587.56,-462.16"/>
<polygon fill="black" stroke="black" points="590.63,-460.47 582.45,-453.74 584.65,-464.11 590.63,-460.47"/>
<text text-anchor="middle" x="619.36" y="-482.06" font-family="Times,serif" font-size="14.00">&#39;l&#39;/&#39;L&#39;</text>
</g>
<!-- SUFFIX_ULL -->
<g id="node12" class="node">
<title>SUFFIX_ULL</title>
<ellipse fill="none" stroke="black" cx="450" cy="-222.98" rx="65.17" ry="65.17"/>
<text text-anchor="middle" x="450" y="-217.93" font-family="Times,serif" font-size="14.00">SUFFIX_ULL</text>
</g>
<!-- SUFFIX_U&#45;&gt;SUFFIX_ULL -->
<g id="edge32" class="edge">
<title>SUFFIX_U&#45;&gt;SUFFIX_ULL</title>
<path fill="none" stroke="black" d="M656.61,-513.98C659.06,-464.96 655.34,-392.07 620,-341.4 591.19,-300.1 561.11,-317.23 520,-288.15 514.83,-284.49 509.63,-280.48 504.53,-276.32"/>
<polygon fill="black" stroke="black" points="507.12,-273.93 497.22,-270.16 502.61,-279.28 507.12,-273.93"/>
<text text-anchor="middle" x="674.51" y="-395.89" font-family="Times,serif" font-size="14.00">&#39;ll&#39;/&#39;LL&#39;</text>
</g>
<!-- SUFFIX_U&#45;&gt;INVALID -->
<g id="edge34" class="edge">
<title>SUFFIX_U&#45;&gt;INVALID</title>
<path fill="none" stroke="black" d="M676.27,-519.65C684.61,-501.68 692.82,-480.64 697,-460.48 707.74,-408.66 712.3,-392.07 697,-341.4 660.68,-221.11 627.23,-184.67 518,-122.56 493.25,-108.49 465.37,-93.79 441.55,-81.58"/>
<polygon fill="black" stroke="black" points="443.46,-78.62 432.96,-77.19 440.28,-84.85 443.46,-78.62"/>
<text text-anchor="middle" x="698.27" y="-310.1" font-family="Times,serif" font-size="14.00">∀c</text>
</g>
<!-- SUFFIX_L&#45;&gt;NUMBER_END_POTENTIAL_SUFFIX -->
<g id="edge38" class="edge">
<title>SUFFIX_L&#45;&gt;NUMBER_END_POTENTIAL_SUFFIX</title>
<path fill="none" stroke="black" d="M268.9,-612.79C280.85,-631.7 295.03,-654.13 308.05,-674.74"/>
<polygon fill="black" stroke="black" points="305.03,-676.52 313.34,-683.1 310.95,-672.78 305.03,-676.52"/>
<text text-anchor="middle" x="329.75" y="-643.13" font-family="Times,serif" font-size="14.00">разделитель</text>
</g>
<!-- SUFFIX_LL -->
<g id="node10" class="node">
<title>SUFFIX_LL</title>
<ellipse fill="none" stroke="black" cx="363" cy="-400.94" rx="58.52" ry="58.52"/>
<text text-anchor="middle" x="363" y="-395.89" font-family="Times,serif" font-size="14.00">SUFFIX_LL</text>
</g>
<!-- SUFFIX_L&#45;&gt;SUFFIX_LL -->
<g id="edge35" class="edge">
<title>SUFFIX_L&#45;&gt;SUFFIX_LL</title>
<path fill="none" stroke="black" d="M271.29,-523.84C281.64,-509.37 293.36,-493.15 304.25,-478.48 309.44,-471.48 314.95,-464.17 320.44,-456.95"/>
<polygon fill="black" stroke="black" points="323.14,-459.18 326.42,-449.1 317.58,-454.93 323.14,-459.18"/>
<text text-anchor="middle" x="316.62" y="-482.06" font-family="Times,serif" font-size="14.00">&#39;l&#39;/&#39;L&#39;</text>
</g>
<!-- SUFFIX_L&#45;&gt;SUFFIX_UL -->
<g id="edge36" class="edge">
<title>SUFFIX_L&#45;&gt;SUFFIX_UL</title>
<path fill="none" stroke="black" d="M282.11,-533.94C294.04,-526.03 307.5,-518.5 321,-513.73 361.2,-499.55 477.69,-521.03 512,-495.73 521.15,-488.98 528.17,-479.68 533.55,-469.54"/>
<polygon fill="black" stroke="black" points="536.68,-471.09 537.75,-460.55 530.34,-468.13 536.68,-471.09"/>
<text text-anchor="middle" x="541.61" y="-482.06" font-family="Times,serif" font-size="14.00">&#39;u&#39;/&#39;U&#39;</text>
</g>
<!-- SUFFIX_L&#45;&gt;SUFFIX_ULL -->
<g id="edge37" class="edge">
<title>SUFFIX_L&#45;&gt;SUFFIX_ULL</title>
<path fill="none" stroke="black" d="M226.95,-516.15C216.46,-467.02 209.32,-392.51 244.75,-341.4 281.56,-288.31 325.21,-322.39 380,-288.15 385.37,-284.79 390.71,-281 395.9,-276.97"/>
<polygon fill="black" stroke="black" points="397.75,-279.98 403.31,-270.96 393.34,-274.54 397.75,-279.98"/>
<text text-anchor="middle" x="269.88" y="-395.89" font-family="Times,serif" font-size="14.00">&#39;u&#39;&#39;l&#39;/&#39;U&#39;&#39;L&#39;</text>
</g>
<!-- SUFFIX_L&#45;&gt;INVALID -->
<g id="edge39" class="edge">
<title>SUFFIX_L&#45;&gt;INVALID</title>
<path fill="none" stroke="black" d="M222.78,-517.86C220.54,-510.52 218.51,-502.98 217,-495.73 207.66,-450.95 211.13,-351.86 214,-341.4 239.32,-249.14 302.7,-156.49 344.77,-102.04"/>
<polygon fill="black" stroke="black" points="347.52,-104.21 350.92,-94.18 342,-99.9 347.52,-104.21"/>
<text text-anchor="middle" x="231.75" y="-310.1" font-family="Times,serif" font-size="14.00">∀c</text>
</g>
<!-- SUFFIX_LL&#45;&gt;NUMBER_END_POTENTIAL_SUFFIX -->
<g id="edge41" class="edge">
<title>SUFFIX_LL&#45;&gt;NUMBER_END_POTENTIAL_SUFFIX</title>
<path fill="none" stroke="black" d="M359.62,-459.66C358.75,-477.03 357.93,-496.15 357.5,-513.73 356.32,-561.64 344.06,-575.56 357.5,-621.55 360.16,-630.67 366.34,-630.44 369,-639.55 371.15,-646.91 369.97,-649.2 369,-656.8 368.62,-659.81 368.16,-662.87 367.64,-665.95"/>
<polygon fill="black" stroke="black" points="364.22,-665.16 365.79,-675.64 371.1,-666.47 364.22,-665.16"/>
<text text-anchor="middle" x="392.75" y="-562.59" font-family="Times,serif" font-size="14.00">разделитель</text>
</g>
<!-- SUFFIX_LL&#45;&gt;SUFFIX_ULL -->
<g id="edge40" class="edge">
<title>SUFFIX_LL&#45;&gt;SUFFIX_ULL</title>
<path fill="none" stroke="black" d="M387.09,-347.15C393.36,-333.72 400.2,-319.35 406.75,-306.15 409.24,-301.14 411.85,-295.97 414.5,-290.78"/>
<polygon fill="black" stroke="black" points="417.47,-292.66 418.94,-282.17 411.25,-289.45 417.47,-292.66"/>
<text text-anchor="middle" x="421.38" y="-309.73" font-family="Times,serif" font-size="14.00">&#39;u&#39;/&#39;U&#39;</text>
</g>
<!-- SUFFIX_LL&#45;&gt;INVALID -->
<g id="edge42" class="edge">
<title>SUFFIX_LL&#45;&gt;INVALID</title>
<path fill="none" stroke="black" d="M359.02,-342.51C356.49,-293.33 354.84,-220.7 361.75,-157.81 363.31,-143.59 366.04,-128.48 369.08,-114.3"/>
<polygon fill="black" stroke="black" points="372.47,-115.15 371.24,-104.63 365.64,-113.62 372.47,-115.15"/>
<text text-anchor="middle" x="368.88" y="-218.31" font-family="Times,serif" font-size="14.00">∀c</text>
</g>
<!-- SUFFIX_UL&#45;&gt;NUMBER_END_POTENTIAL_SUFFIX -->
<g id="edge44" class="edge">
<title>SUFFIX_UL&#45;&gt;NUMBER_END_POTENTIAL_SUFFIX</title>
<path fill="none" stroke="black" d="M568.13,-458.02C569.1,-471.24 567.32,-484.69 560,-495.73 548.67,-512.83 532.17,-499.39 517.5,-513.73 467.62,-562.48 496.22,-602.05 453,-656.8 441.19,-671.77 426.04,-685.54 410.95,-697.32"/>
<polygon fill="black" stroke="black" points="409.16,-694.29 403.3,-703.11 413.38,-699.87 409.16,-694.29"/>
<text text-anchor="middle" x="552.75" y="-562.59" font-family="Times,serif" font-size="14.00">разделитель</text>
</g>
<!-- SUFFIX_UL&#45;&gt;SUFFIX_ULL -->
<g id="edge43" class="edge">
<title>SUFFIX_UL&#45;&gt;SUFFIX_ULL</title>
<path fill="none" stroke="black" d="M521.79,-349.05C511.17,-330.55 499.02,-309.38 487.77,-289.78"/>
<polygon fill="black" stroke="black" points="490.92,-288.25 482.91,-281.31 484.85,-291.73 490.92,-288.25"/>
<text text-anchor="middle" x="518.92" y="-309.73" font-family="Times,serif" font-size="14.00">&#39;l&#39;/&#39;L&#39;</text>
</g>
<!-- SUFFIX_UL&#45;&gt;INVALID -->
<g id="edge45" class="edge">
<title>SUFFIX_UL&#45;&gt;INVALID</title>
<path fill="none" stroke="black" d="M556.97,-341.44C559.46,-289.78 556.13,-214.11 524,-157.81 505.24,-124.94 471.54,-99.2 442.01,-81.49"/>
<polygon fill="black" stroke="black" points="443.91,-78.54 433.5,-76.55 440.39,-84.6 443.91,-78.54"/>
<text text-anchor="middle" x="564.02" y="-218.31" font-family="Times,serif" font-size="14.00">∀c</text>
</g>
<!-- SUFFIX_ULL&#45;&gt;NUMBER_END_POTENTIAL_SUFFIX -->
<g id="edge46" class="edge">
<title>SUFFIX_ULL&#45;&gt;NUMBER_END_POTENTIAL_SUFFIX</title>
<path fill="none" stroke="black" d="M446.87,-288.52C441.46,-399.11 430.65,-613.79 428,-621.55 420.89,-642.4 408.92,-662.95 396.37,-680.85"/>
<polygon fill="black" stroke="black" points="393.7,-678.57 390.67,-688.72 399.37,-682.68 393.7,-678.57"/>
<text text-anchor="middle" x="472.3" y="-482.06" font-family="Times,serif" font-size="14.00">разделитель</text>
</g>
<!-- SUFFIX_ULL&#45;&gt;INVALID -->
<g id="edge47" class="edge">
<title>SUFFIX_ULL&#45;&gt;INVALID</title>
<path fill="none" stroke="black" d="M426.9,-162.03C420.61,-145.71 413.82,-128.07 407.56,-111.83"/>
<polygon fill="black" stroke="black" points="410.94,-110.88 404.08,-102.81 404.41,-113.4 410.94,-110.88"/>
<text text-anchor="middle" x="424.62" y="-126.51" font-family="Times,serif" font-size="14.00">∀c</text>
</g>
</g>
</svg>
