<?xml version="1.0" encoding="UTF-8" standalone="no"?>
<!DOCTYPE svg PUBLIC "-//W3C//DTD SVG 1.1//EN"
 "http://www.w3.org/Graphics/SVG/1.1/DTD/svg11.dtd">
<!-- Generated by graphviz version 12.1.0 (20240811.2233)
 -->
<!-- Title: StateFA Pages: 1 -->
<svg width="921pt" height="850pt"
 viewBox="0.00 0.00 920.62 849.82" xmlns="http://www.w3.org/2000/svg" xmlns:xlink="http://www.w3.org/1999/xlink">
<g id="graph0" class="graph" transform="scale(1 1) rotate(0) translate(4 845.82)">
<title>StateFA</title>
<polygon fill="white" stroke="none" points="-4,4 -4,-845.82 916.62,-845.82 916.62,4 -4,4"/>
<!-- NORMAL -->
<g id="node1" class="node">
<title>NORMAL</title>
<ellipse fill="none" stroke="black" cx="529.3" cy="-790.47" rx="51.35" ry="51.35"/>
<text text-anchor="middle" x="529.3" y="-785.42" font-family="Times,serif" font-size="14.00">NORMAL</text>
</g>
<!-- NORMAL&#45;&gt;NORMAL -->
<g id="edge4" class="edge">
<title>NORMAL&#45;&gt;NORMAL</title>
<path fill="none" stroke="black" d="M578.86,-804.77C590.27,-803.53 598.65,-798.77 598.65,-790.47 598.65,-785.15 595.21,-781.28 589.74,-778.87"/>
<polygon fill="black" stroke="black" points="590.87,-775.54 580.32,-776.53 589.19,-782.34 590.87,-775.54"/>
<text text-anchor="middle" x="605.77" y="-785.79" font-family="Times,serif" font-size="14.00">∀с</text>
</g>
<!-- SLASH -->
<g id="node2" class="node">
<title>SLASH</title>
<ellipse fill="none" stroke="black" cx="463.3" cy="-627.35" rx="40.09" ry="40.09"/>
<text text-anchor="middle" x="463.3" y="-622.3" font-family="Times,serif" font-size="14.00">SLASH</text>
</g>
<!-- NORMAL&#45;&gt;SLASH -->
<g id="edge1" class="edge">
<title>NORMAL&#45;&gt;SLASH</title>
<path fill="none" stroke="black" d="M496.3,-750.48C489.9,-741.31 483.85,-731.25 479.55,-721.12 473.9,-707.81 470.22,-692.64 467.81,-678.47"/>
<polygon fill="black" stroke="black" points="471.32,-678.25 466.37,-668.88 464.4,-679.29 471.32,-678.25"/>
<text text-anchor="middle" x="481.42" y="-707.44" font-family="Times,serif" font-size="14.00">/</text>
</g>
<!-- IN_STRING -->
<g id="node6" class="node">
<title>IN_STRING</title>
<ellipse fill="none" stroke="black" cx="276.3" cy="-627.35" rx="58.52" ry="58.52"/>
<text text-anchor="middle" x="276.3" y="-622.3" font-family="Times,serif" font-size="14.00">IN_STRING</text>
</g>
<!-- NORMAL&#45;&gt;IN_STRING -->
<g id="edge2" class="edge">
<title>NORMAL&#45;&gt;IN_STRING</title>
<path fill="none" stroke="black" d="M481.74,-769.85C453.66,-757.44 417.93,-740.17 388.3,-721.12 367.3,-707.61 345.82,-690.71 327.36,-675.04"/>
<polygon fill="black" stroke="black" points="330.12,-672.79 320.25,-668.93 325.55,-678.1 330.12,-672.79"/>
<text text-anchor="middle" x="391.3" y="-707.44" font-family="Times,serif" font-size="14.00">&quot;</text>
</g>
<!-- IN_CHAR -->
<g id="node7" class="node">
<title>IN_CHAR</title>
<ellipse fill="none" stroke="black" cx="709.3" cy="-627.35" rx="50.84" ry="50.84"/>
<text text-anchor="middle" x="709.3" y="-622.3" font-family="Times,serif" font-size="14.00">IN_CHAR</text>
</g>
<!-- NORMAL&#45;&gt;IN_CHAR -->
<g id="edge3" class="edge">
<title>NORMAL&#45;&gt;IN_CHAR</title>
<path fill="none" stroke="black" d="M563.63,-751.67C578.11,-736.34 595.43,-718.78 612.05,-703.87 626.94,-690.5 643.95,-676.81 659.53,-664.82"/>
<polygon fill="black" stroke="black" points="661.48,-667.74 667.31,-658.89 657.24,-662.17 661.48,-667.74"/>
<text text-anchor="middle" x="613.17" y="-707.44" font-family="Times,serif" font-size="14.00">&#39;</text>
</g>
<!-- SLASH&#45;&gt;NORMAL -->
<g id="edge7" class="edge">
<title>SLASH&#45;&gt;NORMAL</title>
<path fill="none" stroke="black" d="M478.28,-664.94C486.4,-684.76 496.62,-709.7 505.77,-732.04"/>
<polygon fill="black" stroke="black" points="502.43,-733.11 509.45,-741.03 508.9,-730.45 502.43,-733.11"/>
<text text-anchor="middle" x="507.37" y="-707.82" font-family="Times,serif" font-size="14.00">∀с</text>
</g>
<!-- MULTI_COMMENT -->
<g id="node3" class="node">
<title>MULTI_COMMENT</title>
<ellipse fill="none" stroke="black" cx="295.3" cy="-419.19" rx="92.81" ry="92.81"/>
<text text-anchor="middle" x="295.3" y="-414.14" font-family="Times,serif" font-size="14.00">MULTI_COMMENT</text>
</g>
<!-- SLASH&#45;&gt;MULTI_COMMENT -->
<g id="edge6" class="edge">
<title>SLASH&#45;&gt;MULTI_COMMENT</title>
<path fill="none" stroke="black" d="M438.51,-595.93C418.06,-570.84 388.1,-534.07 360.86,-500.64"/>
<polygon fill="black" stroke="black" points="363.61,-498.49 354.58,-492.95 358.19,-502.91 363.61,-498.49"/>
<text text-anchor="middle" x="402.66" y="-537.16" font-family="Times,serif" font-size="14.00">*</text>
</g>
<!-- SINGLE_COMMENT -->
<g id="node5" class="node">
<title>SINGLE_COMMENT</title>
<ellipse fill="none" stroke="black" cx="534.3" cy="-419.19" rx="96.39" ry="96.39"/>
<text text-anchor="middle" x="534.3" y="-414.14" font-family="Times,serif" font-size="14.00">SINGLE_COMMENT</text>
</g>
<!-- SLASH&#45;&gt;SINGLE_COMMENT -->
<g id="edge5" class="edge">
<title>SLASH&#45;&gt;SINGLE_COMMENT</title>
<path fill="none" stroke="black" d="M476.15,-589.02C482.73,-569.91 491.09,-545.64 499.41,-521.5"/>
<polygon fill="black" stroke="black" points="502.65,-522.83 502.6,-512.23 496.03,-520.55 502.65,-522.83"/>
<text text-anchor="middle" x="496.42" y="-537.16" font-family="Times,serif" font-size="14.00">/</text>
</g>
<!-- MULTI_COMMENT&#45;&gt;MULTI_COMMENT -->
<g id="edge9" class="edge">
<title>MULTI_COMMENT&#45;&gt;MULTI_COMMENT</title>
<path fill="none" stroke="black" d="M386.16,-439.53C398.15,-436.06 406.1,-429.28 406.1,-419.19 406.1,-412.41 402.51,-407.13 396.52,-403.34"/>
<polygon fill="black" stroke="black" points="398.11,-400.21 387.55,-399.45 395.33,-406.64 398.11,-400.21"/>
<text text-anchor="middle" x="413.23" y="-414.52" font-family="Times,serif" font-size="14.00">∀с</text>
</g>
<!-- STAR_IN_MULTI_COMMENT -->
<g id="node4" class="node">
<title>STAR_IN_MULTI_COMMENT</title>
<ellipse fill="none" stroke="black" cx="332.3" cy="-134.78" rx="134.78" ry="134.78"/>
<text text-anchor="middle" x="332.3" y="-129.73" font-family="Times,serif" font-size="14.00">STAR_IN_MULTI_COMMENT</text>
</g>
<!-- MULTI_COMMENT&#45;&gt;STAR_IN_MULTI_COMMENT -->
<g id="edge8" class="edge">
<title>MULTI_COMMENT&#45;&gt;STAR_IN_MULTI_COMMENT</title>
<path fill="none" stroke="black" d="M307.39,-326.91C308.37,-319.43 309.35,-311.99 310.3,-304.8 311.37,-296.64 312.46,-288.26 313.57,-279.8"/>
<polygon fill="black" stroke="black" points="317.01,-280.52 314.83,-270.15 310.07,-279.61 317.01,-280.52"/>
<text text-anchor="middle" x="315.47" y="-291.13" font-family="Times,serif" font-size="14.00">*</text>
</g>
<!-- STAR_IN_MULTI_COMMENT&#45;&gt;NORMAL -->
<g id="edge12" class="edge">
<title>STAR_IN_MULTI_COMMENT&#45;&gt;NORMAL</title>
<path fill="none" stroke="black" d="M467.14,-142.06C591.94,-155.9 771.09,-197.9 859.3,-322.8 953.56,-456.28 914.77,-568.28 801.3,-685.87 745.14,-744.06 652.89,-769.98 591.63,-781.24"/>
<polygon fill="black" stroke="black" points="591.3,-777.74 582.06,-782.92 592.51,-784.64 591.3,-777.74"/>
<text text-anchor="middle" x="903.57" y="-537.16" font-family="Times,serif" font-size="14.00">/</text>
</g>
<!-- STAR_IN_MULTI_COMMENT&#45;&gt;MULTI_COMMENT -->
<g id="edge10" class="edge">
<title>STAR_IN_MULTI_COMMENT&#45;&gt;MULTI_COMMENT</title>
<path fill="none" stroke="black" d="M295.66,-264.91C294.24,-272.53 293.02,-280.12 292.05,-287.55 291.06,-295.15 291.94,-297.14 292.05,-304.8 292.09,-308.03 292.15,-311.32 292.21,-314.63"/>
<polygon fill="black" stroke="black" points="288.7,-314.55 292.4,-324.48 295.7,-314.41 288.7,-314.55"/>
<text text-anchor="middle" x="299.17" y="-291.5" font-family="Times,serif" font-size="14.00">∀c</text>
</g>
<!-- STAR_IN_MULTI_COMMENT&#45;&gt;STAR_IN_MULTI_COMMENT -->
<g id="edge11" class="edge">
<title>STAR_IN_MULTI_COMMENT&#45;&gt;STAR_IN_MULTI_COMMENT</title>
<path fill="none" stroke="black" d="M465.35,-158.83C477.46,-153.83 485.07,-145.81 485.07,-134.78 485.07,-127.19 481.47,-121.03 475.29,-116.3"/>
<polygon fill="black" stroke="black" points="477.1,-113.3 466.67,-111.47 473.68,-119.41 477.1,-113.3"/>
<text text-anchor="middle" x="488.45" y="-129.73" font-family="Times,serif" font-size="14.00">*</text>
</g>
<!-- SINGLE_COMMENT&#45;&gt;NORMAL -->
<g id="edge14" class="edge">
<title>SINGLE_COMMENT&#45;&gt;NORMAL</title>
<path fill="none" stroke="black" d="M533,-516.05C532.1,-582.71 530.92,-669.64 530.14,-727.39"/>
<polygon fill="black" stroke="black" points="526.64,-727.34 530,-737.38 533.64,-727.43 526.64,-727.34"/>
<text text-anchor="middle" x="550.96" y="-622.3" font-family="Times,serif" font-size="14.00">\n or \r</text>
</g>
<!-- SINGLE_COMMENT&#45;&gt;SINGLE_COMMENT -->
<g id="edge13" class="edge">
<title>SINGLE_COMMENT&#45;&gt;SINGLE_COMMENT</title>
<path fill="none" stroke="black" d="M628.97,-439.28C640.86,-435.74 648.69,-429.04 648.69,-419.19 648.69,-412.57 645.15,-407.38 639.23,-403.61"/>
<polygon fill="black" stroke="black" points="640.92,-400.53 630.36,-399.71 638.11,-406.94 640.92,-400.53"/>
<text text-anchor="middle" x="655.81" y="-414.52" font-family="Times,serif" font-size="14.00">∀c</text>
</g>
<!-- IN_STRING&#45;&gt;NORMAL -->
<g id="edge16" class="edge">
<title>IN_STRING&#45;&gt;NORMAL</title>
<path fill="none" stroke="black" d="M325.38,-659.61C368.84,-687.29 432.1,-727.57 476.61,-755.92"/>
<polygon fill="black" stroke="black" points="474.5,-758.72 484.81,-761.14 478.26,-752.82 474.5,-758.72"/>
<text text-anchor="middle" x="420.94" y="-707.44" font-family="Times,serif" font-size="14.00">&quot;</text>
</g>
<!-- IN_STRING&#45;&gt;IN_STRING -->
<g id="edge17" class="edge">
<title>IN_STRING&#45;&gt;IN_STRING</title>
<path fill="none" stroke="black" d="M333.02,-642.71C344.56,-641.03 352.81,-635.91 352.81,-627.35 352.81,-621.86 349.42,-617.79 343.96,-615.13"/>
<polygon fill="black" stroke="black" points="345.06,-611.81 334.48,-612.41 343.12,-618.54 345.06,-611.81"/>
<text text-anchor="middle" x="359.94" y="-622.68" font-family="Times,serif" font-size="14.00">∀с</text>
</g>
<!-- SLASH_IN_STRING -->
<g id="node8" class="node">
<title>SLASH_IN_STRING</title>
<ellipse fill="none" stroke="black" cx="92.3" cy="-419.19" rx="92.3" ry="92.3"/>
<text text-anchor="middle" x="92.3" y="-414.14" font-family="Times,serif" font-size="14.00">SLASH_IN_STRING</text>
</g>
<!-- IN_STRING&#45;&gt;SLASH_IN_STRING -->
<g id="edge15" class="edge">
<title>IN_STRING&#45;&gt;SLASH_IN_STRING</title>
<path fill="none" stroke="black" d="M237.5,-582.88C215.33,-558.04 186.89,-526.17 161.05,-497.23"/>
<polygon fill="black" stroke="black" points="163.77,-495.01 154.5,-489.88 158.55,-499.68 163.77,-495.01"/>
<text text-anchor="middle" x="208.06" y="-537.16" font-family="Times,serif" font-size="14.00">\</text>
</g>
<!-- IN_CHAR&#45;&gt;NORMAL -->
<g id="edge20" class="edge">
<title>IN_CHAR&#45;&gt;NORMAL</title>
<path fill="none" stroke="black" d="M673.98,-664.43C656.42,-681.95 634.65,-703.07 614.3,-721.12 603.01,-731.13 590.51,-741.53 578.65,-751.11"/>
<polygon fill="black" stroke="black" points="576.53,-748.32 570.92,-757.31 580.91,-753.78 576.53,-748.32"/>
<text text-anchor="middle" x="634.2" y="-707.44" font-family="Times,serif" font-size="14.00">&#39;</text>
</g>
<!-- IN_CHAR&#45;&gt;IN_CHAR -->
<g id="edge21" class="edge">
<title>IN_CHAR&#45;&gt;IN_CHAR</title>
<path fill="none" stroke="black" d="M758.18,-643C769.66,-641.71 778.14,-636.5 778.14,-627.35 778.14,-621.49 774.66,-617.24 769.14,-614.61"/>
<polygon fill="black" stroke="black" points="770.2,-611.27 759.64,-612.09 768.41,-618.04 770.2,-611.27"/>
<text text-anchor="middle" x="785.26" y="-622.68" font-family="Times,serif" font-size="14.00">∀с</text>
</g>
<!-- SLASH_IN_CHAR -->
<g id="node9" class="node">
<title>SLASH_IN_CHAR</title>
<ellipse fill="none" stroke="black" cx="765.3" cy="-419.19" rx="84.62" ry="84.62"/>
<text text-anchor="middle" x="765.3" y="-414.14" font-family="Times,serif" font-size="14.00">SLASH_IN_CHAR</text>
</g>
<!-- IN_CHAR&#45;&gt;SLASH_IN_CHAR -->
<g id="edge19" class="edge">
<title>IN_CHAR&#45;&gt;SLASH_IN_CHAR</title>
<path fill="none" stroke="black" d="M719.78,-577.56C723.02,-563.33 726.75,-547.79 730.55,-533.58 732.49,-526.3 734.59,-518.78 736.77,-511.24"/>
<polygon fill="black" stroke="black" points="740.12,-512.24 739.56,-501.66 733.4,-510.28 740.12,-512.24"/>
<text text-anchor="middle" x="732.42" y="-537.16" font-family="Times,serif" font-size="14.00">\</text>
</g>
<!-- SLASH_IN_STRING&#45;&gt;IN_STRING -->
<g id="edge18" class="edge">
<title>SLASH_IN_STRING&#45;&gt;IN_STRING</title>
<path fill="none" stroke="black" d="M137.66,-499.76C149.41,-517.44 162.8,-535.47 177.05,-550.83 189.36,-564.11 204.23,-576.77 218.66,-587.8"/>
<polygon fill="black" stroke="black" points="216.24,-590.37 226.35,-593.55 220.43,-584.76 216.24,-590.37"/>
<text text-anchor="middle" x="184.17" y="-537.53" font-family="Times,serif" font-size="14.00">∀с</text>
</g>
<!-- SLASH_IN_CHAR&#45;&gt;IN_CHAR -->
<g id="edge22" class="edge">
<title>SLASH_IN_CHAR&#45;&gt;IN_CHAR</title>
<path fill="none" stroke="black" d="M747.03,-502.01C743.08,-518.25 738.75,-535.14 734.3,-550.83 732.67,-556.56 730.88,-562.51 729.04,-568.43"/>
<polygon fill="black" stroke="black" points="725.82,-566.98 726.12,-577.57 732.49,-569.1 725.82,-566.98"/>
<text text-anchor="middle" x="745.29" y="-537.53" font-family="Times,serif" font-size="14.00">∀с</text>
</g>
</g>
</svg>
